<svg id="Capa_1" data-name="Capa 1" xmlns="http://www.w3.org/2000/svg" viewBox="0 0 315.88965 304.70459"><defs><style>.cls-1{fill:#21d51e;}.cls-2{fill:#b6d7a9;}.cls-3{fill:#ffe599;}.cls-4{fill:#facb9d;}.cls-5{fill:red;}</style></defs><title>semaforo-datos</title><circle class="cls-1" cx="291.38965" cy="24.5" r="24.5"/><path d="M43.16846,60.03467a22.02275,22.02275,0,0,1-9.07715,1.63183c-9.689,0-16.981-6.11914-16.981-17.38916,0-10.75976,7.292-18.05224,17.9502-18.05224a18.42717,18.42717,0,0,1,8.15918,1.52978l-1.0708,3.6211a16.1534,16.1534,0,0,0-6.93555-1.42823c-8.05713,0-13.41162,5.15039-13.41162,14.17676,0,8.41406,4.84472,13.81934,13.20752,13.81934a17.75371,17.75371,0,0,0,7.24121-1.42774Z" transform="translate(-17.11035 -19)"/><path d="M48.11719,55.75146a15.72391,15.72391,0,0,0,7.95508,2.24366c4.53857,0,7.19043-2.397,7.19043-5.86426,0-3.21289-1.83594-5.04883-6.47657-6.8335-5.60937-1.98877-9.07715-4.8955-9.07715-9.74023,0-5.35449,4.437-9.332,11.11719-9.332a15.61332,15.61332,0,0,1,7.59815,1.6831l-1.22364,3.62061A13.69216,13.69216,0,0,0,58.67334,29.897c-4.69189,0-6.47656,2.80469-6.47656,5.15039,0,3.21289,2.09082,4.79346,6.83349,6.6294,5.81348,2.24365,8.771,5.04834,8.771,10.09668,0,5.30371-3.92676,9.89306-12.03467,9.89306a17.76583,17.76583,0,0,1-8.77148-2.19238Z" transform="translate(-17.11035 -19)"/><path d="M81.41943,61.15674,70.20068,26.78613h4.79346l5.35449,16.93018c1.47852,4.64062,2.75342,8.82226,3.67139,12.85107h.102c.96875-3.97754,2.397-8.3125,3.92676-12.7998L93.8623,26.78613h4.74219L86.31494,61.15674Z" transform="translate(-17.11035 -19)"/><circle class="cls-2" cx="291.38965" cy="86.5" r="24.5"/><circle class="cls-3" cx="291.38965" cy="150.5" r="24.5"/><circle class="cls-4" cx="291.38965" cy="213.5" r="24.5"/><circle class="cls-5" cx="291.38965" cy="277.5" r="24.5"/><path d="M37.09229,107.93311H23.73145v12.3916H38.62207v3.72265H19.29492V89.67676h18.562v3.72265H23.73145v10.86182H37.09229Z" transform="translate(-17.11035 -19)"/><path d="M46.32422,99.36572l3.51855,5.30371c.918,1.377,1.68311,2.65186,2.49854,4.02832h.15332c.81592-1.47851,1.63183-2.75341,2.44775-4.07959l3.46778-5.25244h4.84423l-8.41406,11.93311,8.66895,12.74853H58.41016l-3.62061-5.55859c-.96924-1.42773-1.78516-2.80469-2.65185-4.2832h-.10206c-.81591,1.47851-1.6831,2.80468-2.60058,4.2832l-3.56983,5.55859H40.91846l8.77148-12.5957L41.32666,99.36572Z" transform="translate(-17.11035 -19)"/><path d="M84.6748,123.12939a16.53253,16.53253,0,0,1-7.08837,1.42774c-7.44532,0-12.28955-5.04834-12.28955-12.5957,0-7.59815,5.20117-13.10547,13.2583-13.10547a15.00462,15.00462,0,0,1,6.22168,1.2749l-1.02,3.46777a10.40311,10.40311,0,0,0-5.20166-1.17285c-5.66016,0-8.71973,4.18115-8.71973,9.332,0,5.71143,3.67139,9.23,8.56689,9.23a12.746,12.746,0,0,0,5.50733-1.22412Z" transform="translate(-17.11035 -19)"/><path d="M92.12207,112.52246c.10205,6.06836,3.978,8.56738,8.46533,8.56738a16.22976,16.22976,0,0,0,6.8335-1.2749l.76465,3.2124a19.9912,19.9912,0,0,1-8.21,1.52979c-7.59815,0-12.13672-4.99756-12.13672-12.44238,0-7.44532,4.38525-13.31006,11.57568-13.31006,8.05713,0,10.19873,7.08838,10.19873,11.627a16.87727,16.87727,0,0,1-.15283,2.09082Zm13.15674-3.2124c.05127-2.856-1.17285-7.29248-6.22119-7.29248-4.53858,0-6.52735,4.18164-6.88428,7.29248Z" transform="translate(-17.11035 -19)"/><path d="M115.17432,87.84082h4.4873v36.20654h-4.4873Z" transform="translate(-17.11035 -19)"/><path d="M23.73145,152.67676v14.38086H40.356V152.67676h4.4873v34.3706H40.356V170.93311H23.73145v16.11425H19.29492v-34.3706Z" transform="translate(-17.11035 -19)"/><path d="M59.07373,156.4502H48.62012v-3.77344H74.06641v3.77344H63.56152v30.59716H59.07373Z" transform="translate(-17.11035 -19)"/><path d="M106.8584,171.95312c-.25488-4.79394-.561-10.55615-.51026-14.83984h-.15283c-1.17285,4.02881-2.60058,8.3125-4.33447,13.05469l-6.06836,16.67529H92.42676l-5.5586-16.36914c-1.63183-4.84473-3.00878-9.28125-3.97754-13.36084h-.102c-.10205,4.28369-.35693,10.0459-.66259,15.19678l-.918,14.7373H76.9751l2.397-34.3706h5.66064L90.897,169.30127c1.42774,4.23242,2.60059,8.00586,3.46778,11.57568h.15283c.8667-3.46777,2.09082-7.24121,3.6206-11.57568l6.11914-16.62451H109.918l2.1416,34.3706H107.7251Z" transform="translate(-17.11035 -19)"/><path d="M118.89648,152.67676H123.333v30.648h14.68652v3.72265H118.89648Z" transform="translate(-17.11035 -19)"/><path d="M19.29492,216.085a51.42743,51.42743,0,0,1,8.51612-.66308c4.38574,0,7.59863,1.02,9.63818,2.85546a9.24128,9.24128,0,0,1,3.00879,7.19043,10.1169,10.1169,0,0,1-2.65186,7.34327c-2.3457,2.499-6.17041,3.77392-10.50488,3.77392a15.27827,15.27827,0,0,1-3.56982-.30615v13.76855H19.29492Zm4.43653,16.57324a14.88547,14.88547,0,0,0,3.67187.35694c5.35449,0,8.61816-2.60059,8.61816-7.34326,0-4.53858-3.21289-6.73145-8.10839-6.73145a18.615,18.615,0,0,0-4.18164.35693Z" transform="translate(-17.11035 -19)"/><path d="M46.42676,216.13574a63.58247,63.58247,0,0,1,9.43408-.71386c6.37451,0,10.91309,1.479,13.92187,4.28369,3.05958,2.80468,4.84424,6.78222,4.84424,12.34082,0,5.60937-1.73388,10.19873-4.94629,13.36035-3.21289,3.21289-8.51611,4.94678-15.19677,4.94678a71.62064,71.62064,0,0,1-8.05713-.40821Zm4.43652,30.39307a28.007,28.007,0,0,0,4.48779.25488c9.48487,0,14.63526-5.30322,14.63526-14.58447.05127-8.1084-4.53858-13.25879-13.92139-13.25879a25.21523,25.21523,0,0,0-5.20166.459Z" transform="translate(-17.11035 -19)"/><path d="M80.39209,215.67676H98.90332v3.72265H84.82861v11.42286H97.83252v3.67187H84.82861v15.55322H80.39209Z" transform="translate(-17.11035 -19)"/><path d="M121.293,218.27734v7.08838h6.42529v3.417H121.293v13.30958c0,3.05957.86719,4.79345,3.36572,4.79345a9.96282,9.96282,0,0,0,2.60059-.30615l.2041,3.36572a10.9848,10.9848,0,0,1-3.97754.61182,6.21712,6.21712,0,0,1-4.84424-1.88672c-1.2749-1.32568-1.73389-3.51855-1.73389-6.42529V228.78271H113.083v-3.417h3.8247V219.4502Z" transform="translate(-17.11035 -19)"/><path d="M134.96094,238.52246c.10205,6.06836,3.978,8.56738,8.46533,8.56738a16.22976,16.22976,0,0,0,6.8335-1.2749l.76464,3.2124a19.99116,19.99116,0,0,1-8.21,1.52979c-7.59814,0-12.13672-4.99756-12.13672-12.44238,0-7.44532,4.38526-13.31006,11.57569-13.31006,8.05713,0,10.19873,7.08838,10.19873,11.62695a16.87727,16.87727,0,0,1-.15283,2.09082Zm13.15674-3.2124c.05127-2.856-1.17286-7.29248-6.2212-7.29248-4.53857,0-6.52734,4.18164-6.88427,7.29248Z" transform="translate(-17.11035 -19)"/><path d="M159.95166,225.36572l3.51855,5.30371c.918,1.377,1.68262,2.65186,2.499,4.02832h.15283c.81592-1.47851,1.63184-2.75341,2.44775-4.07959l3.46778-5.25244h4.84424l-8.41407,11.93311,8.66895,12.74853H172.0376l-3.6211-5.55859c-.96875-1.42773-1.78466-2.80469-2.65136-4.2832h-.102c-.81592,1.47851-1.68311,2.80468-2.60059,4.2832l-3.56982,5.55859h-4.94629l8.771-12.5957-8.36328-12.08594Z" transform="translate(-17.11035 -19)"/><path d="M187.541,218.27734v7.08838h6.42529v3.417H187.541v13.30958c0,3.05957.86718,4.79345,3.36572,4.79345a9.96267,9.96267,0,0,0,2.60058-.30615l.20411,3.36572a10.98484,10.98484,0,0,1-3.97754.61182,6.21712,6.21712,0,0,1-4.84424-1.88672c-1.2749-1.32568-1.73389-3.51855-1.73389-6.42529V228.78271h-3.82471v-3.417h3.82471V219.4502Z" transform="translate(-17.11035 -19)"/><path d="M221.04639,237.50244c0,9.12842-6.32373,13.106-12.29,13.106-6.68018,0-11.83057-4.89551-11.83057-12.69776,0-8.26123,5.40527-13.106,12.23877-13.106C216.25244,224.80469,221.04639,229.95557,221.04639,237.50244Zm-19.582.25537c0,5.40528,3.11035,9.48487,7.49609,9.48487,4.28369,0,7.49609-4.02881,7.49609-9.58692,0-4.18164-2.09082-9.48535-7.394-9.48535C203.75879,228.17041,201.46436,233.06592,201.46436,237.75781Z" transform="translate(-17.11035 -19)"/><path d="M19.10107,279.08447a51.42743,51.42743,0,0,1,8.51612-.66308c4.38574,0,7.59863,1.02,9.63818,2.85547a9.24125,9.24125,0,0,1,3.00879,7.19043,10.11689,10.11689,0,0,1-2.65186,7.34326c-2.3457,2.499-6.17041,3.77392-10.50488,3.77392a15.27832,15.27832,0,0,1-3.56982-.30615v13.76856H19.10107Zm4.43653,16.57324a14.88553,14.88553,0,0,0,3.67187.35694c5.35449,0,8.61817-2.60059,8.61817-7.34326,0-4.53858-3.21289-6.73145-8.1084-6.73145a18.61427,18.61427,0,0,0-4.18164.35694Z" transform="translate(-17.11035 -19)"/><path d="M46.23291,279.13525a63.58258,63.58258,0,0,1,9.43408-.71386c6.37451,0,10.91309,1.479,13.92188,4.28369,3.05957,2.80469,4.84424,6.78222,4.84424,12.34082,0,5.60937-1.73389,10.19873-4.94629,13.36035C66.27393,311.61914,60.9707,313.353,54.29,313.353a71.62064,71.62064,0,0,1-8.05713-.40821Zm4.43652,30.39307a28.007,28.007,0,0,0,4.4878.25488c9.48486,0,14.63525-5.30322,14.63525-14.58447.05127-8.1084-4.53857-13.25879-13.92139-13.25879a25.21446,25.21446,0,0,0-5.20166.459Z" transform="translate(-17.11035 -19)"/><path d="M80.19824,278.67627H98.70947v3.72266H84.63477v11.42285h13.0039v3.67187H84.63477v15.55323H80.19824Z" transform="translate(-17.11035 -19)"/><path d="M120.69141,281.43018a2.77941,2.77941,0,0,1-5.5586,0,2.73422,2.73422,0,0,1,2.80469-2.80469A2.66349,2.66349,0,0,1,120.69141,281.43018Zm-4.99756,31.6167V288.36523h4.4873v24.68165Z" transform="translate(-17.11035 -19)"/><path d="M127.62744,295.0459c0-2.54981-.05127-4.64063-.2041-6.68067h3.92676l.2041,3.97754h.15283a8.50685,8.50685,0,0,1,7.751-4.53857,7.29646,7.29646,0,0,1,6.98633,4.94678h.102a10.171,10.171,0,0,1,2.7539-3.21289,8.42532,8.42532,0,0,1,5.45655-1.73389c3.26367,0,8.10791,2.14209,8.10791,10.709v14.5337h-4.38526V299.07422c0-4.74268-1.73388-7.59815-5.35449-7.59815a5.81014,5.81014,0,0,0-5.30371,4.07959,7.38506,7.38506,0,0,0-.35693,2.24366v15.24756H143.0791V298.2583c0-3.92676-1.73389-6.78223-5.15088-6.78223-2.80468,0-4.84424,2.24366-5.5581,4.48731a6.17883,6.17883,0,0,0-.35694,2.19287v14.89063h-4.38574Z" transform="translate(-17.11035 -19)"/><path d="M183.82812,313.04688l-.35693-3.11084h-.15283a9.19318,9.19318,0,0,1-7.54736,3.67187c-4.99756,0-7.54737-3.51855-7.54737-7.08838,0-5.96631,5.30371-9.23,14.83985-9.1792v-.50976c0-2.04-.561-5.71143-5.60938-5.71143a12.297,12.297,0,0,0-6.42578,1.83594l-1.01953-2.958a15.31762,15.31762,0,0,1,8.10791-2.19287c7.54736,0,9.3833,5.15088,9.3833,10.09717v9.23a34.78273,34.78273,0,0,0,.40771,5.91553Zm-.66308-12.59571c-4.89551-.102-10.45361.76514-10.45361,5.5586a3.97066,3.97066,0,0,0,4.23242,4.2832,6.14019,6.14019,0,0,0,5.96631-4.13037,4.67273,4.67273,0,0,0,.25488-1.42774Z" transform="translate(-17.11035 -19)"/><path d="M216.00781,288.36523c-.10156,1.78516-.20361,3.77393-.20361,6.78223v14.32959c0,5.66065-1.12207,9.12842-3.519,11.27-2.39649,2.24365-5.86426,2.95752-8.9751,2.95752a15.93151,15.93151,0,0,1-8.21-2.03955l1.12207-3.4165a13.92006,13.92006,0,0,0,7.24121,1.9375c4.58935,0,7.95508-2.39649,7.95508-8.61817v-2.75342h-.10205a8.811,8.811,0,0,1-7.853,4.13037c-6.11963,0-10.50488-5.20117-10.50488-12.03466,0-8.36328,5.45605-13.106,11.1167-13.106a8.20936,8.20936,0,0,1,7.70019,4.28369h.10205l.2041-3.72266Zm-4.64013,9.74024a6.389,6.389,0,0,0-.25538-2.04,6.46376,6.46376,0,0,0-6.272-4.74219c-4.28369,0-7.34326,3.62061-7.34326,9.332,0,4.84424,2.44775,8.87305,7.292,8.87305a6.56072,6.56072,0,0,0,6.22168-4.58984,7.80849,7.80849,0,0,0,.35694-2.39649Z" transform="translate(-17.11035 -19)"/><path d="M225.75049,301.522c.102,6.06836,3.978,8.56739,8.46533,8.56739a16.22973,16.22973,0,0,0,6.8335-1.27491l.76464,3.21241a19.99137,19.99137,0,0,1-8.21,1.52978c-7.59814,0-12.13671-4.99756-12.13671-12.44238,0-7.44531,4.38525-13.31006,11.57568-13.31006,8.05713,0,10.19873,7.08838,10.19873,11.627a16.87727,16.87727,0,0,1-.15283,2.09082Zm13.15674-3.2124c.05127-2.856-1.17285-7.29248-6.22119-7.29248-4.53858,0-6.52735,4.18164-6.88428,7.29248Z" transform="translate(-17.11035 -19)"/><path d="M248.80225,295.0459c0-2.54981-.05127-4.64063-.20411-6.68067h3.97754l.25537,4.07959h.10157a9.07664,9.07664,0,0,1,8.15918-4.64062c3.417,0,8.72021,2.04,8.72021,10.50537v14.73731h-4.4873V298.81934c0-3.97754-1.479-7.29248-5.71143-7.29248a6.37573,6.37573,0,0,0-6.01758,4.58984,6.44862,6.44862,0,0,0-.30615,2.09082v14.83936h-4.4873Z" transform="translate(-17.11035 -19)"/></svg>