<svg xmlns="http://www.w3.org/2000/svg" xmlns:xlink="http://www.w3.org/1999/xlink" viewBox="0 0 600 494"><defs><style>.cls-1,.cls-7,.cls-8,.cls-9{fill:none;}.cls-2{clip-path:url(#clip-path);}.cls-3{fill:#18a1cd;}.cls-3,.cls-4,.cls-5,.cls-6{stroke:#fff;stroke-linejoin:bevel;stroke-width:0.5px;}.cls-4{fill:#e0e0e0;}.cls-5{fill:#bcbcbc;}.cls-6{fill:#989898;}.cls-7,.cls-8,.cls-9{stroke:#000;stroke-linecap:round;stroke-linejoin:round;stroke-width:3px;}.cls-8{stroke-dasharray:12.02483 12.02483;}.cls-9{stroke-dasharray:12 12;}</style><clipPath id="clip-path"><rect class="cls-1" x="103.5" y="70.5" width="393" height="393"/></clipPath></defs><title>Mesa de trabajo 1</title><g id="exportSvg"><g id="_svelte-dw-svg" data-name="  svelte-dw-svg"><g id="outer-container-svg_dw-chart-styles-svg_datawrapper-mwDXV-ta9mlc-svg_svelte-13lpkhe-svg_static-svg" data-name="outer-container-svg dw-chart-styles-svg datawrapper-mwDXV-ta9mlc-svg svelte-13lpkhe-svg static-svg"><g id="chart-svg"><g class="cls-2"><g id="group-svg"><g id="pie-svg"><g id="slice-svg"><path class="cls-3" d="M300,70.5c108.524,0,196.5,87.976,196.5,196.5S408.524,463.5,300,463.5V70.5Z"/></g><g id="slice-svg-2" data-name="slice-svg"><path class="cls-4" d="M300,463.5a196.5,196.5,0,0,1-138.94649-57.55351L300,267Z"/></g><g id="slice-svg-3" data-name="slice-svg"><path class="cls-5" d="M161.05351,405.94649A196.5,196.5,0,0,1,103.5,267H300Z"/></g><g id="slice-svg-4" data-name="slice-svg"><path class="cls-6" d="M103.5,267c0-108.524,87.976-196.5,196.5-196.5V267Z"/></g></g></g></g></g></g></g></g><g id="Capa_2" data-name="Capa 2"><path class="cls-7" d="M453.42514,410.74212c1.17258-1.25335,2.52936-2.73451,4.034-4.43536"/><path class="cls-8" d="M465.18515,397.09639c19.25427-24.18784,48.34262-70.38931,47.4133-129.70662C511.05078,168.60715,426.58908,54.79135,300,54.79135c-117.41487,0-212.59843,95.18353-212.59843,212.59842,0,65.99466,33.24169,115.84135,50.9047,137.62132"/><path class="cls-7" d="M142.16321,409.626c1.56453,1.81428,2.91517,3.30913,3.99553,4.4708"/><polygon points="466.006 411.487 465.817 409.093 454.021 410.034 453.944 398.2 451.542 398.218 451.639 412.631 466.006 411.487"/><polygon points="133.594 414.716 133.804 412.323 145.591 413.367 145.771 401.533 148.172 401.572 147.951 415.984 133.594 414.716"/><line class="cls-9" x1="299.5" y1="45.63626" x2="299.5" y2="31.88977"/><polygon points="311.77 35.696 309.572 33.649 299.503 44.485 289.431 33.649 287.233 35.696 299.503 48.89 311.77 35.696"/><path d="M243.43164,20.04308a5.03176,5.03176,0,0,1-1.69434,3.61329,5.95113,5.95113,0,0,1-4.02832,1.31835,5.3513,5.3513,0,0,1-4.30175-1.84082,7.54734,7.54734,0,0,1-1.56739-5.05371v-.86914a8.52044,8.52044,0,0,1,.72266-3.61328,5.4184,5.4184,0,0,1,2.06543-2.39746,6.45461,6.45461,0,0,1,7.085.4834,5.40808,5.40808,0,0,1,1.73828,3.70117h-2.92969a2.97059,2.97059,0,0,0-.7666-1.99707,2.838,2.838,0,0,0-2.00683-.62012,2.48941,2.48941,0,0,0-2.19239,1.04981,5.8863,5.8863,0,0,0-.74707,3.25683v1.07422a6.29766,6.29766,0,0,0,.69825,3.36914,2.44344,2.44344,0,0,0,2.20214,1.06446,2.89156,2.89156,0,0,0,2.02637-.62012,2.80153,2.80153,0,0,0,.7666-1.91895Z"/><path d="M244.73047,19.39855a6.26378,6.26378,0,0,1,.60547-2.80273,4.43439,4.43439,0,0,1,1.74316-1.9043,5.08565,5.08565,0,0,1,2.6416-.67383,4.81112,4.81112,0,0,1,3.49121,1.3086A5.25038,5.25038,0,0,1,254.7207,18.881l.01953.72266a5.52374,5.52374,0,0,1-1.35742,3.90137,5.26112,5.26112,0,0,1-7.29.00488,5.61985,5.61985,0,0,1-1.3623-3.98437Zm2.82226.2002a3.95246,3.95246,0,0,0,.56641,2.30371,2.03516,2.03516,0,0,0,3.22266.00976,4.32255,4.32255,0,0,0,.57617-2.51855,3.91044,3.91044,0,0,0-.57617-2.28906,1.87312,1.87312,0,0,0-1.6211-.81153,1.84291,1.84291,0,0,0-1.60156.80664A4.397,4.397,0,0,0,247.55273,19.59875Z"/><path d="M259.125,14.213l.08789,1.18164a3.71338,3.71338,0,0,1,3.03711-1.377,2.818,2.818,0,0,1,2.80273,1.61133,3.62822,3.62822,0,0,1,3.17383-1.61133,3.15112,3.15112,0,0,1,2.5586,1.001,4.60006,4.60006,0,0,1,.83984,3.0127v6.748h-2.832V18.04113a2.012,2.012,0,0,0-.35156-1.31348,1.55771,1.55771,0,0,0-1.24024-.415,1.762,1.762,0,0,0-1.75781,1.21093l.00976,7.25586h-2.82226V18.0509a1.98879,1.98879,0,0,0-.36133-1.32813,1.57271,1.57271,0,0,0-1.23047-.41015,1.82881,1.82881,0,0,0-1.73828.99609v7.4707h-2.82226V14.213Z"/><path d="M273.77344,11.47863a1.38952,1.38952,0,0,1,.4248-1.04492,1.83069,1.83069,0,0,1,2.30957,0,1.49126,1.49126,0,0,1-.00488,2.09961,1.81018,1.81018,0,0,1-2.29492,0A1.3862,1.3862,0,0,1,273.77344,11.47863Zm2.998,13.30078h-2.832V14.213h2.832Z"/><path d="M283.959,24.97472a5.18647,5.18647,0,0,1-3.78418-1.42578,5.06885,5.06885,0,0,1-1.46-3.79882v-.27344a6.383,6.383,0,0,1,.61524-2.84668,4.517,4.517,0,0,1,1.74316-1.9336,4.89162,4.89162,0,0,1,2.57324-.67871,4.38468,4.38468,0,0,1,3.41309,1.36719,5.55545,5.55545,0,0,1,1.24512,3.87695v1.15235h-6.72852a2.62254,2.62254,0,0,0,.8252,1.66015,2.49521,2.49521,0,0,0,1.74316.625,3.04633,3.04633,0,0,0,2.54883-1.18164l1.38672,1.55274a4.23787,4.23787,0,0,1-1.71875,1.40137A5.63669,5.63669,0,0,1,283.959,24.97472Zm-.32226-8.68164a1.76267,1.76267,0,0,0-1.36231.56885,2.94852,2.94852,0,0,0-.66894,1.62842h3.92578v-.22559a2.1005,2.1005,0,0,0-.50781-1.45654A1.81982,1.81982,0,0,0,283.63672,16.29308Z"/><path d="M292.50391,14.213l.08789,1.2207a3.68978,3.68978,0,0,1,3.03711-1.416,3.06562,3.06562,0,0,1,2.5.98633,4.60325,4.60325,0,0,1,.83984,2.94922v6.82617h-2.82227V18.0216a1.83119,1.83119,0,0,0-.39062-1.30371,1.7491,1.7491,0,0,0-1.29883-.40527,1.94093,1.94093,0,0,0-1.78711,1.01562v7.45117h-2.82226V14.213Z"/><path d="M304.34961,22.504h5.166v2.27539h-8.76953V23.06066l4.97071-6.57226h-4.82422V14.213h8.4668V15.8756Z"/><path d="M317.40625,24.77941a3.11694,3.11694,0,0,1-.2832-.94726,3.41488,3.41488,0,0,1-2.666,1.14257,3.75142,3.75142,0,0,1-2.57324-.89843,2.88847,2.88847,0,0,1-1.02051-2.26563,2.98638,2.98638,0,0,1,1.24512-2.57812,6.14289,6.14289,0,0,1,3.59863-.90821h1.29883v-.60546a1.73954,1.73954,0,0,0-.376-1.17188,1.47859,1.47859,0,0,0-1.18652-.43945,1.68244,1.68244,0,0,0-1.11816.34179,1.1606,1.1606,0,0,0-.40528.9375h-2.82226a2.84,2.84,0,0,1,.5664-1.69921,3.74406,3.74406,0,0,1,1.60156-1.22559,5.8317,5.8317,0,0,1,2.32422-.44434,4.6097,4.6097,0,0,1,3.10059.98145,3.43417,3.43417,0,0,1,1.14746,2.75879V22.338a5.04279,5.04279,0,0,0,.41992,2.27539v.166Zm-2.334-1.96289a2.43254,2.43254,0,0,0,1.15234-.27832,1.83169,1.83169,0,0,0,.78125-.74707V19.97472h-1.05469q-2.11816,0-2.25586,1.46485l-.00976.166a1.12785,1.12785,0,0,0,.37109.86914A1.44182,1.44182,0,0,0,315.07227,22.81652Z"/><path d="M333.10938,24.77941a3.11721,3.11721,0,0,1-.28321-.94726,3.41485,3.41485,0,0,1-2.666,1.14257,3.75145,3.75145,0,0,1-2.57325-.89843,2.88849,2.88849,0,0,1-1.0205-2.26563,2.9864,2.9864,0,0,1,1.24511-2.57812,6.14292,6.14292,0,0,1,3.59864-.90821H332.709v-.60546a1.73959,1.73959,0,0,0-.376-1.17188,1.47862,1.47862,0,0,0-1.18653-.43945,1.68248,1.68248,0,0,0-1.11816.34179,1.16059,1.16059,0,0,0-.40527.9375h-2.82227a2.83994,2.83994,0,0,1,.56641-1.69921,3.744,3.744,0,0,1,1.60156-1.22559,5.83163,5.83163,0,0,1,2.32422-.44434,4.60967,4.60967,0,0,1,3.10058.98145,3.43418,3.43418,0,0,1,1.14747,2.75879V22.338a5.04266,5.04266,0,0,0,.41992,2.27539v.166Zm-2.334-1.96289a2.43251,2.43251,0,0,0,1.15234-.27832,1.83163,1.83163,0,0,0,.78125-.74707V19.97472H331.6543q-2.11816,0-2.25586,1.46485l-.00977.166a1.12786,1.12786,0,0,0,.3711.86914A1.44178,1.44178,0,0,0,330.77539,22.81652Z"/><path d="M337.26953,19.39855a6.31352,6.31352,0,0,1,1.1084-3.93554,3.62456,3.62456,0,0,1,3.042-1.44532,3.24388,3.24388,0,0,1,2.70508,1.29883l.18555-1.10351H346.791v14.6289h-2.832v-4.9707a3.25193,3.25193,0,0,1-2.55859,1.10351,3.59691,3.59691,0,0,1-3.00781-1.46484A6.63014,6.63014,0,0,1,337.26953,19.39855Zm2.82227.2002a4.1475,4.1475,0,0,0,.53222,2.30859,1.704,1.704,0,0,0,1.499.792,1.89823,1.89823,0,0,0,1.83593-1.03662V17.29064a1.88234,1.88234,0,0,0-1.8164-.99756,1.725,1.725,0,0,0-1.51367.792A4.58243,4.58243,0,0,0,340.0918,19.59875Z"/><path d="M355.33594,23.70519a3.54061,3.54061,0,0,1-2.89063,1.26953,3.33844,3.33844,0,0,1-2.59277-.97656,4.172,4.172,0,0,1-.91309-2.86133V14.213h2.82227v6.834q0,1.65234,1.5039,1.65234a2.03757,2.03757,0,0,0,1.97266-.99707V14.213h2.832v10.5664h-2.65625Z"/><path d="M363.24609,24.77941h-2.82226V14.213h2.82226ZM362.416,9.9259h3.07617l-2.70508,3.02734h-2.29492Z"/></g></svg>