<svg version="1.1" viewBox="0.0 0.0 600.0 371.0" fill="none" stroke="none" stroke-linecap="square" stroke-miterlimit="10" width="600" height="371" xmlns:xlink="http://www.w3.org/1999/xlink" xmlns="http://www.w3.org/2000/svg"><path fill="#ffffff" d="M0 0L600.0 0L600.0 371.0L0 371.0L0 0Z" fill-rule="nonzero"/><path stroke="#333333" stroke-width="1.0" stroke-linecap="butt" d="M101.5 308.5L581.5 308.5" fill-rule="nonzero"/><path fill="#eeeeee" d="M77.5 332.5L101.5 309.5L581.5 309.5L557.5 332.5Z" fill-rule="nonzero"/><path stroke="#cccccc" stroke-width="1.0" stroke-linecap="butt" d="M101.5 251.5L581.5 251.5" fill-rule="nonzero"/><path stroke="#cccccc" stroke-width="1.0" stroke-linecap="butt" d="M101.5 195.5L581.5 195.5" fill-rule="nonzero"/><path stroke="#cccccc" stroke-width="1.0" stroke-linecap="butt" d="M101.5 138.5L581.5 138.5" fill-rule="nonzero"/><path stroke="#cccccc" stroke-width="1.0" stroke-linecap="butt" d="M101.5 82.5L581.5 82.5" fill-rule="nonzero"/><path stroke="#cccccc" stroke-width="1.0" stroke-linecap="butt" d="M101.5 25.5L581.5 25.5" fill-rule="nonzero"/><clipPath id="id_0"><path d="M77.55 25.55L581.45 25.55L581.45 332.45L77.55 332.45L77.55 25.55Z" clip-rule="nonzero"/></clipPath><path fill="#2b569f" clip-path="url(#id_0)" d="M203.0 252.0L203.0 308.0L184.0 327.0L184.0 271.0Z" fill-rule="nonzero"/><path fill="#689df6" clip-path="url(#id_0)" d="M184.0 271.0L109.0 271.0L128.0 252.0L203.0 252.0Z" fill-rule="nonzero"/><path stroke="#000000" stroke-width="2.0" stroke-linecap="butt" stroke-opacity="0.0" clip-path="url(#id_0)" d="M184.0 327.0L109.0 327.0L109.0 271.0L184.0 271.0Z" fill-rule="nonzero"/><path fill="#4285f4" clip-path="url(#id_0)" d="M184.0 327.0L109.0 327.0L109.0 271.0L184.0 271.0Z" fill-rule="nonzero"/><path fill="#2b569f" clip-path="url(#id_0)" d="M319.0 224.0L319.0 308.0L300.0 327.0L300.0 243.0Z" fill-rule="nonzero"/><path fill="#689df6" clip-path="url(#id_0)" d="M300.0 243.0L225.0 243.0L244.0 224.0L319.0 224.0Z" fill-rule="nonzero"/><path stroke="#000000" stroke-width="2.0" stroke-linecap="butt" stroke-opacity="0.0" clip-path="url(#id_0)" d="M300.0 327.0L225.0 327.0L225.0 243.0L300.0 243.0Z" fill-rule="nonzero"/><path fill="#4285f4" clip-path="url(#id_0)" d="M300.0 327.0L225.0 327.0L225.0 243.0L300.0 243.0Z" fill-rule="nonzero"/><path fill="#2b569f" clip-path="url(#id_0)" d="M435.0 139.0L435.0 308.0L416.0 327.0L416.0 158.0Z" fill-rule="nonzero"/><path fill="#689df6" clip-path="url(#id_0)" d="M416.0 158.0L341.0 158.0L360.0 139.0L435.0 139.0Z" fill-rule="nonzero"/><path stroke="#000000" stroke-width="2.0" stroke-linecap="butt" stroke-opacity="0.0" clip-path="url(#id_0)" d="M416.0 327.0L341.0 327.0L341.0 158.0L416.0 158.0Z" fill-rule="nonzero"/><path fill="#4285f4" clip-path="url(#id_0)" d="M416.0 327.0L341.0 327.0L341.0 158.0L416.0 158.0Z" fill-rule="nonzero"/><path fill="#2b569f" clip-path="url(#id_0)" d="M551.0 54.0L551.0 308.0L532.0 327.0L532.0 73.0Z" fill-rule="nonzero"/><path fill="#689df6" clip-path="url(#id_0)" d="M532.0 73.0L457.0 73.0L476.0 54.0L551.0 54.0Z" fill-rule="nonzero"/><path stroke="#000000" stroke-width="2.0" stroke-linecap="butt" stroke-opacity="0.0" clip-path="url(#id_0)" d="M532.0 327.0L457.0 327.0L457.0 73.0L532.0 73.0Z" fill-rule="nonzero"/><path fill="#4285f4" clip-path="url(#id_0)" d="M532.0 327.0L457.0 327.0L457.0 73.0L532.0 73.0Z" fill-rule="nonzero"/><path fill="#000000" d="M29.550013 195.98438L23.331263 198.34375L23.331263 197.23438L27.050013 195.89062Q27.659388 195.6875 28.300013 195.5Q27.815638 195.35938 27.128138 195.10938L23.331263 193.71875L23.331263 192.64062L29.550013 195.0L29.550013 195.98438ZM28.784388 188.64062Q29.284388 189.23438 29.487513 189.78125Q29.690638 190.3125 29.690638 190.9375Q29.690638 191.96875 29.190638 192.51562Q28.690638 193.0625 27.909388 193.0625Q27.456263 193.0625 27.081263 192.85938Q26.690638 192.65625 26.471888 192.3125Q26.237513 191.96875 26.128138 191.54688Q26.034388 191.25 25.956263 190.60938Q25.815638 189.34375 25.596888 188.73438Q25.378138 188.73438 25.331263 188.73438Q24.675013 188.73438 24.409388 189.03125Q24.065638 189.4375 24.065638 190.23438Q24.065638 190.96875 24.331263 191.32812Q24.581263 191.6875 25.237513 191.85938L25.096888 192.89062Q24.440638 192.75 24.034388 192.42188Q23.628138 192.09375 23.409388 191.48438Q23.190638 190.875 23.190638 190.07812Q23.190638 189.28125 23.378138 188.78125Q23.565638 188.28125 23.846888 188.04688Q24.128138 187.8125 24.565638 187.71875Q24.831263 187.67188 25.534388 187.67188L26.940638 187.67188Q28.409388 187.67188 28.800013 187.60938Q29.190638 187.53125 29.550013 187.32812L29.550013 188.4375Q29.221888 188.59375 28.784388 188.64062ZM26.425013 188.73438Q26.659388 189.3125 26.831263 190.45312Q26.925013 191.10938 27.050013 191.375Q27.159388 191.64062 27.378138 191.79688Q27.596888 191.9375 27.878138 191.9375Q28.300013 191.9375 28.581263 191.625Q28.862513 191.29688 28.862513 190.6875Q28.862513 190.07812 28.596888 189.60938Q28.331263 189.125 27.862513 188.90625Q27.503138 188.73438 26.815638 188.73438L26.425013 188.73438ZM29.550013 185.73438L20.956263 185.73438L20.956263 184.67188L29.550013 184.67188L29.550013 185.73438ZM26.440638 183.09375Q24.706263 183.09375 23.878138 182.14062Q23.190638 181.34375 23.190638 180.1875Q23.190638 178.90625 24.034388 178.09375Q24.862513 177.26562 26.346888 177.26562Q27.550013 177.26562 28.237513 177.625Q28.925013 177.98438 29.315638 178.6875Q29.690638 179.375 29.690638 180.1875Q29.690638 181.48438 28.862513 182.29688Q28.018763 183.09375 26.440638 183.09375ZM26.440638 182.01562Q27.628138 182.01562 28.221888 181.5Q28.815638 180.96875 28.815638 180.1875Q28.815638 179.39062 28.221888 178.875Q27.628138 178.35938 26.409388 178.35938Q25.253138 178.35938 24.659388 178.89062Q24.065638 179.40625 24.065638 180.1875Q24.065638 180.96875 24.659388 181.5Q25.237513 182.01562 26.440638 182.01562ZM29.550013 175.71875L23.331263 175.71875L23.331263 174.76562L24.268763 174.76562Q23.612513 174.40625 23.409388 174.10938Q23.190638 173.79688 23.190638 173.42188Q23.190638 172.89062 23.518763 172.34375L24.503138 172.70312Q24.268763 173.09375 24.268763 173.46875Q24.268763 173.82812 24.487513 174.10938Q24.690638 174.375 25.065638 174.48438Q25.628138 174.67188 26.284388 174.67188L29.550013 174.67188L29.550013 175.71875Z" fill-rule="nonzero"/><path fill="#000000" d="M65.05 308.21564Q65.05 306.6844 65.3625 305.7625Q65.675 304.825 66.28438 304.325Q66.90938 303.825 67.84688 303.825Q68.53438 303.825 69.05 304.10626Q69.58125 304.3875 69.925 304.91876Q70.26875 305.4344 70.45625 306.1844Q70.64375 306.9344 70.64375 308.21564Q70.64375 309.73126 70.33125 310.65314Q70.03438 311.575 69.40938 312.09064Q68.8 312.59064 67.84688 312.59064Q66.6125 312.59064 65.89375 311.7Q65.05 310.6375 65.05 308.21564ZM66.12813 308.21564Q66.12813 310.325 66.62813 311.02814Q67.12813 311.73126 67.84688 311.73126Q68.58125 311.73126 69.06563 311.02814Q69.56563 310.325 69.56563 308.21564Q69.56563 306.09064 69.06563 305.40314Q68.58125 304.7 67.83125 304.7Q67.1125 304.7 66.675 305.3094Q66.12813 306.09064 66.12813 308.21564Z" fill-rule="nonzero"/><path fill="#000000" d="M70.59688 254.85437L70.59688 255.87L64.90938 255.87Q64.90938 255.495 65.03438 255.13562Q65.25313 254.5575 65.72188 253.995Q66.20625 253.4325 67.1125 252.69812Q68.51875 251.54187 69.00313 250.87Q69.50313 250.19812 69.50313 249.60437Q69.50313 248.97937 69.05 248.5575Q68.59688 248.12 67.87813 248.12Q67.1125 248.12 66.65938 248.57312Q66.20625 249.02625 66.19063 249.83875L65.1125 249.72937Q65.22188 248.51062 65.94063 247.88562Q66.675 247.245 67.90938 247.245Q69.14375 247.245 69.8625 247.9325Q70.58125 248.62 70.58125 249.63562Q70.58125 250.15125 70.3625 250.65125Q70.15938 251.13562 69.65938 251.69812Q69.175 252.245 68.05 253.19812Q67.09688 253.995 66.81563 254.29187Q66.55 254.57312 66.37813 254.85437L70.59688 254.85437Z" fill-rule="nonzero"/><path fill="#000000" d="M68.425 199.29L68.425 197.2275L64.70625 197.2275L64.70625 196.25874L68.62813 190.69624L69.4875 190.69624L69.4875 196.25874L70.64375 196.25874L70.64375 197.2275L69.4875 197.2275L69.4875 199.29L68.425 199.29ZM68.425 196.25874L68.425 192.39937L65.7375 196.25874L68.425 196.25874Z" fill-rule="nonzero"/><path fill="#000000" d="M70.51875 136.22563L69.47188 136.30376Q69.33125 135.67876 69.08125 135.3975Q68.64375 134.94438 68.01875 134.94438Q67.51875 134.94438 67.12813 135.22563Q66.64375 135.60063 66.34688 136.30376Q66.06563 136.99126 66.05 138.2725Q66.425 137.69438 66.97188 137.41313Q67.53438 137.13188 68.14375 137.13188Q69.19063 137.13188 69.925 137.91313Q70.675 138.69438 70.675 139.91313Q70.675 140.72563 70.31563 141.42876Q69.97188 142.11626 69.3625 142.49126Q68.75313 142.85063 67.9875 142.85063Q66.65938 142.85063 65.83125 141.88188Q65.00313 140.91313 65.00313 138.69438Q65.00313 136.19438 65.925 135.06938Q66.72188 134.085 68.08125 134.085Q69.09688 134.085 69.7375 134.66313Q70.39375 135.22563 70.51875 136.22563ZM66.22188 139.92876Q66.22188 140.47563 66.44063 140.97563Q66.675 141.46 67.08125 141.72563Q67.50313 141.99126 67.97188 141.99126Q68.62813 141.99126 69.1125 141.46Q69.59688 140.91313 69.59688 139.99126Q69.59688 139.10063 69.1125 138.585Q68.64375 138.06938 67.925 138.06938Q67.20625 138.06938 66.70625 138.585Q66.22188 139.10063 66.22188 139.92876Z" fill-rule="nonzero"/><path fill="#000000" d="M66.675 81.47375Q66.01875 81.22375 65.69063 80.78625Q65.37813 80.33312 65.37813 79.72375Q65.37813 78.78625 66.05 78.14562Q66.7375 77.505 67.84688 77.505Q68.97188 77.505 69.65938 78.16125Q70.34688 78.8175 70.34688 79.755Q70.34688 80.34875 70.03438 80.78625Q69.72188 81.22375 69.08125 81.47375Q69.87813 81.72375 70.28438 82.30187Q70.69063 82.88 70.69063 83.67687Q70.69063 84.77062 69.90938 85.52062Q69.14375 86.27062 67.8625 86.27062Q66.59688 86.27062 65.81563 85.52062Q65.03438 84.77062 65.03438 83.64562Q65.03438 82.80187 65.45625 82.23937Q65.89375 81.67687 66.675 81.47375ZM66.45625 79.67687Q66.45625 80.28625 66.84688 80.67687Q67.25313 81.0675 67.87813 81.0675Q68.4875 81.0675 68.87813 80.6925Q69.26875 80.30187 69.26875 79.73937Q69.26875 79.16125 68.8625 78.77062Q68.45625 78.36437 67.8625 78.36437Q67.25313 78.36437 66.84688 78.755Q66.45625 79.14562 66.45625 79.67687ZM66.12813 83.64562Q66.12813 84.09875 66.33125 84.52062Q66.55 84.9425 66.97188 85.17687Q67.39375 85.41125 67.87813 85.41125Q68.62813 85.41125 69.1125 84.92687Q69.6125 84.4425 69.6125 83.6925Q69.6125 82.92687 69.1125 82.42687Q68.6125 81.92687 67.84688 81.92687Q67.09688 81.92687 66.6125 82.42687Q66.12813 82.91125 66.12813 83.64562Z" fill-rule="nonzero"/><path fill="#000000" d="M62.01875 29.55L60.971874 29.55L60.971874 22.83125Q60.58125 23.190624 59.95625 23.565624Q59.346874 23.925 58.8625 24.096874L58.8625 23.08125Q59.7375 22.659374 60.39375 22.08125Q61.065624 21.4875 61.346874 20.925L62.01875 20.925L62.01875 29.55ZM65.05 25.315624Q65.05 23.784374 65.3625 22.8625Q65.675 21.925 66.28438 21.425Q66.90938 20.925 67.84688 20.925Q68.53438 20.925 69.05 21.20625Q69.58125 21.4875 69.925 22.01875Q70.26875 22.534374 70.45625 23.284374Q70.64375 24.034374 70.64375 25.315624Q70.64375 26.83125 70.33125 27.753124Q70.03438 28.675 69.40938 29.190624Q68.8 29.690624 67.84688 29.690624Q66.6125 29.690624 65.89375 28.8Q65.05 27.7375 65.05 25.315624ZM66.12813 25.315624Q66.12813 27.425 66.62813 28.128124Q67.12813 28.83125 67.84688 28.83125Q68.58125 28.83125 69.06563 28.128124Q69.56563 27.425 69.56563 25.315624Q69.56563 23.190624 69.06563 22.503124Q68.58125 21.8 67.83125 21.8Q67.1125 21.8 66.675 22.409374Q66.12813 23.190624 66.12813 25.315624Z" fill-rule="nonzero"/><path fill="#000000" d="M142.35075 349.45L142.35075 341.8719L139.52263 341.8719L139.52263 340.85626L146.33513 340.85626L146.33513 341.8719L143.49138 341.8719L143.49138 349.45L142.35075 349.45ZM150.71013 349.45L149.66325 349.45L149.66325 342.73126Q149.27263 343.09064 148.64763 343.46564Q148.03825 343.825 147.55388 343.9969L147.55388 342.98126Q148.42888 342.5594 149.08513 341.98126Q149.757 341.3875 150.03825 340.825L150.71013 340.825L150.71013 349.45Z" fill-rule="nonzero"/><path fill="#000000" d="M258.18982 349.45L258.18982 341.8719L255.36171 341.8719L255.36171 340.85626L262.1742 340.85626L262.1742 341.8719L259.33044 341.8719L259.33044 349.45L258.18982 349.45ZM268.12732 348.4344L268.12732 349.45L262.43982 349.45Q262.43982 349.075 262.56482 348.71564Q262.78357 348.1375 263.25232 347.575Q263.7367 347.0125 264.64294 346.27814Q266.0492 345.1219 266.53357 344.45Q267.03357 343.77814 267.03357 343.1844Q267.03357 342.5594 266.58044 342.1375Q266.12732 341.7 265.40857 341.7Q264.64294 341.7 264.18982 342.15314Q263.7367 342.60626 263.72107 343.41876L262.64294 343.3094Q262.75232 342.09064 263.47107 341.46564Q264.20544 340.825 265.43982 340.825Q266.6742 340.825 267.39294 341.5125Q268.1117 342.2 268.1117 343.21564Q268.1117 343.73126 267.89294 344.23126Q267.68982 344.71564 267.18982 345.27814Q266.70544 345.825 265.58044 346.77814Q264.62732 347.575 264.34607 347.8719Q264.08044 348.15314 263.90857 348.4344L268.12732 348.4344Z" fill-rule="nonzero"/><path fill="#000000" d="M374.0289 349.45L374.0289 341.8719L371.20078 341.8719L371.20078 340.85626L378.01328 340.85626L378.01328 341.8719L375.16953 341.8719L375.16953 349.45L374.0289 349.45ZM378.41953 347.1844L379.48203 347.04376Q379.6539 347.9344 380.0914 348.34064Q380.5289 348.73126 381.1539 348.73126Q381.9039 348.73126 382.41953 348.21564Q382.93515 347.7 382.93515 346.9344Q382.93515 346.21564 382.45078 345.7469Q381.98203 345.2625 381.24765 345.2625Q380.95078 345.2625 380.49765 345.3875L380.62265 344.45Q380.73203 344.46564 380.79453 344.46564Q381.4664 344.46564 381.99765 344.1219Q382.54453 343.7625 382.54453 343.02814Q382.54453 342.45 382.1539 342.075Q381.76328 341.6844 381.13828 341.6844Q380.5289 341.6844 380.10703 342.075Q379.70078 342.46564 379.5914 343.23126L378.5289 343.04376Q378.7164 341.9969 379.4039 341.41876Q380.0914 340.825 381.10703 340.825Q381.81015 340.825 382.4039 341.1375Q382.99765 341.4344 383.31015 341.95Q383.62265 342.46564 383.62265 343.0594Q383.62265 343.60626 383.32578 344.075Q383.0289 344.52814 382.45078 344.79376Q383.20078 344.96564 383.62265 345.52814Q384.04453 346.075 384.04453 346.91876Q384.04453 348.04376 383.2164 348.825Q382.4039 349.60626 381.1539 349.60626Q380.0289 349.60626 379.2789 348.9344Q378.5289 348.2469 378.41953 347.1844Z" fill-rule="nonzero"/><path fill="#000000" d="M489.86798 349.45L489.86798 341.8719L487.03986 341.8719L487.03986 340.85626L493.85236 340.85626L493.85236 341.8719L491.0086 341.8719L491.0086 349.45L489.86798 349.45ZM497.6336 349.45L497.6336 347.3875L493.91486 347.3875L493.91486 346.41876L497.83673 340.85626L498.6961 340.85626L498.6961 346.41876L499.85236 346.41876L499.85236 347.3875L498.6961 347.3875L498.6961 349.45L497.6336 349.45ZM497.6336 346.41876L497.6336 342.5594L494.9461 346.41876L497.6336 346.41876Z" fill-rule="nonzero"/></svg>