<?xml version="1.0" encoding="UTF-8" standalone="no"?>
<!-- Created with Inkscape (http://www.inkscape.org/) -->

<svg
   xmlns:dc="http://purl.org/dc/elements/1.1/"
   xmlns:cc="http://creativecommons.org/ns#"
   xmlns:rdf="http://www.w3.org/1999/02/22-rdf-syntax-ns#"
   xmlns:svg="http://www.w3.org/2000/svg"
   xmlns="http://www.w3.org/2000/svg"
   xmlns:sodipodi="http://sodipodi.sourceforge.net/DTD/sodipodi-0.dtd"
   xmlns:inkscape="http://www.inkscape.org/namespaces/inkscape"
   id="svg2985"
   version="1.1"
   inkscape:version="0.48.2 r9819"
   width="350"
   height="145.35081"
   xml:space="preserve"
   sodipodi:docname="cartaservi.pdf"><metadata
     id="metadata2991"><rdf:RDF><cc:Work
         rdf:about=""><dc:format>image/svg+xml</dc:format><dc:type
           rdf:resource="http://purl.org/dc/dcmitype/StillImage" /><dc:title></dc:title></cc:Work></rdf:RDF></metadata><defs
     id="defs2989"><clipPath
       clipPathUnits="userSpaceOnUse"
       id="clipPath3109"><path
         d="m 506.661,498.139 -48.737,0 0,45.038 48.737,0 0,-45.038"
         id="path3111"
         inkscape:connector-curvature="0" /></clipPath><clipPath
       clipPathUnits="userSpaceOnUse"
       id="clipPath3169"><path
         d="m 336.102,627.889 -296.645,0 0,222.484 296.645,0 0,-222.484"
         id="path3171"
         inkscape:connector-curvature="0" /></clipPath><clipPath
       clipPathUnits="userSpaceOnUse"
       id="clipPath3181"><path
         d="m 569.153,580.23 -44.436,0 0,41.063 44.436,0 0,-41.063"
         id="path3183"
         inkscape:connector-curvature="0" /></clipPath></defs><sodipodi:namedview
     pagecolor="#ffffff"
     bordercolor="#666666"
     borderopacity="1"
     objecttolerance="10"
     gridtolerance="10"
     guidetolerance="10"
     inkscape:pageopacity="0"
     inkscape:pageshadow="2"
     inkscape:window-width="1680"
     inkscape:window-height="988"
     id="namedview2987"
     showgrid="false"
     fit-margin-top="0"
     fit-margin-left="0"
     fit-margin-right="0"
     fit-margin-bottom="0"
     inkscape:zoom="1.0553792"
     inkscape:cx="28.796047"
     inkscape:cy="24.187395"
     inkscape:window-x="-8"
     inkscape:window-y="-8"
     inkscape:window-maximized="1"
     inkscape:current-layer="g2993" /><g
     id="g2993"
     inkscape:groupmode="layer"
     inkscape:label="cartaservi"
     transform="matrix(0,1.25,1.25,0,-351.58681,-895.48508)"><g
       id="g3421"
       transform="matrix(2.8401311,0,0,2.8401311,716.38806,281.26945)"><path
         d="M 40.942,0 0,0 l 0,98.587 40.942,0 0,-98.587 z M 0,0 z m 39.787,40.571 -38.634,0 0,56.88 38.634,0 0,-56.88 z m -38.634,0 z m 12.439,6.094 -5.794,0 0,-1.605 5.794,0 0,1.605 z m -4.029,2.477 0,-1.545 c 0.434,0.037 0.674,0.048 1.033,0.048 l 2.996,0 0,1.521 -2.311,0 c -0.05,0 -0.876,-0.094 -0.876,0.661 0,0.471 0.424,0.565 0.818,0.586 l 2.369,0 0,1.522 -2.695,0 c -0.891,0 -1.456,-0.641 -1.456,-1.51 0,-0.51 0.16,-0.912 0.565,-1.259 L 9.563,49.142 z m 1.243,7.254 c -1.116,-0.064 -1.365,-0.949 -1.365,-1.9 0,-0.807 0.276,-1.865 1.269,-1.865 1.459,0 1.035,2.385 1.748,2.385 0.257,0 0.371,-0.219 0.371,-0.518 0,-0.142 -0.081,-0.267 -0.184,-0.357 -0.105,-0.091 -0.246,-0.126 -0.362,-0.106 l 0,-1.44 c 1.226,-0.013 1.431,0.952 1.431,1.938 0,0.923 -0.277,1.927 -1.342,1.927 -0.66,0 -0.957,-0.329 -1.109,-0.811 -0.295,-0.957 -0.279,-1.571 -0.578,-1.571 -0.232,0 -0.362,0.136 -0.362,0.361 0,0.207 0.058,0.336 0.147,0.415 0.08,0.074 0.199,0.099 0.336,0.099 l 0,1.443 z m -1.243,0.329 0.965,0 0,0.783 1.802,0 c 1.236,-0.078 1.384,0.548 1.384,1.581 0,0.226 -0.017,0.473 -0.084,0.82 l -0.905,0 c 0.023,-0.177 0.023,-0.383 0.023,-0.587 0,-0.353 -0.521,-0.289 -0.625,-0.289 l -1.595,0 0,0.884 -0.965,0 0,-0.884 -1.187,0 0.576,-1.525 0.611,0 0,-0.783 z m 4.029,5.446 -4.029,0 0,-1.524 4.029,0 0,1.524 z m -4.717,0.006 -1.077,0 0,-1.54 1.077,0 0,1.54 z m 0.688,0.588 0.965,0 0,0.782 1.802,0 c 1.236,-0.075 1.384,0.548 1.384,1.581 0,0.23 -0.017,0.475 -0.084,0.821 l -0.905,0 c 0.023,-0.176 0.023,-0.385 0.023,-0.586 0,-0.354 -0.521,-0.289 -0.625,-0.289 l -1.595,0 0,0.881 -0.965,0 0,-0.881 -1.187,0 0.576,-1.527 0.611,0 0,-0.782 z m 4.027,6.665 0,1.547 c -0.433,-0.041 -0.672,-0.045 -1.035,-0.045 l -2.992,0 0,-1.527 2.309,0 c 0.049,0 0.876,0.098 0.876,-0.655 0,-0.474 -0.426,-0.572 -0.819,-0.588 l -2.366,0 0,-1.524 2.695,0 c 0.893,0 1.456,0.642 1.456,1.51 0,0.511 -0.165,0.912 -0.563,1.257 l 0.439,0.025 z m -4.027,1.966 0.965,0 0,0.785 1.802,0 c 1.236,-0.08 1.384,0.544 1.384,1.58 0,0.224 -0.017,0.473 -0.084,0.819 l -0.905,0 c 0.023,-0.176 0.023,-0.385 0.023,-0.586 0,-0.352 -0.521,-0.29 -0.625,-0.29 l -1.595,0 0,0.884 -0.965,0 0,-0.884 -1.187,0 0.576,-1.523 0.611,0 0,-0.785 z m 2.013,5.246 c -0.567,0 -1.253,0.135 -1.253,0.776 0,0.638 0.686,0.78 1.253,0.78 0.572,0 1.253,-0.142 1.253,-0.78 0,-0.641 -0.681,-0.776 -1.253,-0.776 z m -2.135,0.776 c 0,-1.259 0.652,-2.344 2.135,-2.344 1.486,0 2.138,1.085 2.138,2.344 0,1.261 -0.652,2.344 -2.138,2.344 -1.483,0 -2.135,-1.083 -2.135,-2.344 z m 13.71,-32.375 0,1.447 -4.435,0 0,0.013 4.435,1.965 0,2.223 -5.792,0 0,-1.442 4.299,0 0.019,-0.018 -4.318,-1.939 0,-2.249 5.792,0 z m -1.288,7.684 c -0.283,0 -0.427,0.179 -0.54,0.402 -0.105,0.208 -0.086,0.515 -0.086,0.834 0.536,0 1.152,-0.055 1.152,-0.715 0,-0.286 -0.242,-0.521 -0.526,-0.521 z m 1.288,2.755 c -0.48,-0.056 -0.656,-0.09 -0.824,-0.09 l -2.074,0 c -0.903,0.016 -1.249,-0.97 -1.249,-1.791 0,-0.446 0.048,-0.97 0.242,-1.384 0.184,-0.412 0.512,-0.706 1.083,-0.7 l 0,1.435 c -0.244,-0.007 -0.604,0.113 -0.618,0.483 -0.024,0.609 0.487,0.528 0.841,0.528 l 0,-0.48 c 0,-1.316 0.401,-2.214 1.381,-2.229 0.827,-0.017 1.338,0.48 1.338,1.435 0,0.755 -0.376,1.097 -0.663,1.284 l 0,0.014 c 0.287,0 0.417,0 0.543,0.033 l 0,1.462 z m -2.615,4.869 c -1.146,-0.073 -1.547,-1.036 -1.532,-2.056 0,-1.21 0.672,-2.215 2.134,-2.215 1.395,0 2.133,0.691 2.133,2.215 -0.015,0.529 -0.153,1.044 -0.424,1.429 -0.28,0.379 -0.7,0.627 -1.267,0.627 l 0,-1.527 c 0.361,0 0.767,-0.064 0.809,-0.591 0,-0.555 -0.836,-0.587 -1.251,-0.587 -0.417,0 -1.25,0.032 -1.25,0.587 0,0.23 0.064,0.383 0.177,0.47 0.113,0.091 0.27,0.121 0.471,0.121 l 0,1.527 z m 2.615,2.245 -4.024,0 0,-1.524 4.024,0 0,1.524 z m -4.718,0.008 -1.074,0 0,-1.539 1.074,0 0,1.539 z m 2.705,2.384 c -0.569,0 -1.25,0.133 -1.25,0.777 0,0.64 0.681,0.776 1.25,0.776 0.568,0 1.251,-0.136 1.251,-0.776 0,-0.644 -0.683,-0.777 -1.251,-0.777 z m -2.134,0.777 c 0,-1.259 0.649,-2.345 2.134,-2.345 1.483,0 2.133,1.086 2.133,2.345 0,1.258 -0.65,2.341 -2.133,2.341 -1.485,0 -2.134,-1.083 -2.134,-2.341 z m 0.123,4.53 0,-1.545 c 0.433,0.037 0.672,0.045 1.03,0.045 l 2.994,0 0,1.525 -2.309,0 c -0.048,0 -0.876,-0.097 -0.876,0.657 0,0.472 0.425,0.571 0.818,0.589 l 2.367,0 0,1.521 -2.694,0 c -0.895,0 -1.453,-0.643 -1.453,-1.508 0,-0.514 0.159,-0.912 0.558,-1.259 l -0.435,-0.025 z m 2.736,4.885 c -0.283,0 -0.427,0.176 -0.54,0.402 -0.105,0.21 -0.086,0.512 -0.086,0.834 0.536,0 1.152,-0.058 1.152,-0.713 0,-0.288 -0.242,-0.523 -0.526,-0.523 z m 1.288,2.753 c -0.48,-0.058 -0.656,-0.086 -0.824,-0.086 l -2.074,0 c -0.903,0.012 -1.249,-0.972 -1.249,-1.794 0,-0.448 0.048,-0.968 0.242,-1.386 0.184,-0.411 0.512,-0.706 1.083,-0.699 l 0,1.436 c -0.244,-0.006 -0.604,0.112 -0.618,0.481 -0.024,0.612 0.487,0.531 0.841,0.531 l 0,-0.479 c 0,-1.318 0.401,-2.217 1.381,-2.233 0.827,-0.015 1.338,0.484 1.338,1.437 0,0.752 -0.376,1.098 -0.663,1.283 l 0,0.019 c 0.287,0 0.417,0 0.543,0.031 l 0,1.459 z m 0,2.366 -5.792,0 0,-1.524 5.792,0 0,1.524 z m 0,6.506 0,1.483 -5.792,0 0,-1.525 2.237,0 0,-0.016 c -0.415,-0.293 -0.592,-0.801 -0.592,-1.308 0,-1.193 1.081,-1.731 2.15,-1.731 1.002,0 2.117,0.538 2.117,1.685 0,0.57 -0.222,1.13 -0.713,1.337 l 0,0.033 0.593,0.042 z m -3.263,-0.788 c 0,0.667 0.714,0.746 1.25,0.746 0.528,0 1.251,-0.12 1.251,-0.746 0,-0.624 -0.723,-0.745 -1.251,-0.745 -0.536,0 -1.25,0.082 -1.25,0.745 z m 12.826,-36.529 -1.124,0 0,-2.807 -1.228,0 0,2.582 -1.122,0 0,-2.582 -1.196,0 0,2.807 -1.126,0 0,-4.411 5.796,0 0,4.411 z m -2.785,4.316 c -1.115,-0.065 -1.363,-0.946 -1.363,-1.901 0,-0.804 0.274,-1.862 1.267,-1.862 1.46,0 1.036,2.382 1.75,2.382 0.253,0 0.368,-0.216 0.368,-0.513 0,-0.142 -0.08,-0.272 -0.185,-0.358 -0.104,-0.09 -0.24,-0.129 -0.359,-0.107 l 0,-1.444 c 1.226,-0.008 1.426,0.955 1.426,1.938 0,0.925 -0.274,1.927 -1.339,1.927 -0.657,0 -0.955,-0.326 -1.106,-0.809 -0.297,-0.951 -0.281,-1.57 -0.581,-1.57 -0.229,0 -0.36,0.135 -0.36,0.36 0,0.207 0.057,0.338 0.146,0.417 0.079,0.069 0.202,0.098 0.336,0.098 l 0,1.442 z m -1.244,0.328 0.963,0 0,0.786 1.807,0 c 1.235,-0.078 1.378,0.546 1.378,1.58 0,0.227 -0.015,0.477 -0.08,0.819 l -0.905,0 c 0.023,-0.178 0.023,-0.384 0.023,-0.585 0,-0.353 -0.522,-0.289 -0.626,-0.289 l -1.597,0 0,0.882 -0.963,0 0,-0.882 -1.186,0 0.578,-1.525 0.608,0 0,-0.786 z m 2.737,5.078 c -0.282,0 -0.424,0.176 -0.539,0.401 -0.104,0.21 -0.087,0.515 -0.087,0.835 0.538,0 1.155,-0.056 1.155,-0.714 0,-0.289 -0.242,-0.522 -0.529,-0.522 z m 1.292,2.751 c -0.483,-0.054 -0.659,-0.088 -0.831,-0.088 l -2.067,0 c -0.905,0.016 -1.25,-0.972 -1.25,-1.789 0,-0.45 0.045,-0.969 0.24,-1.386 0.184,-0.41 0.514,-0.706 1.085,-0.697 l 0,1.434 c -0.243,-0.008 -0.602,0.114 -0.619,0.482 -0.026,0.61 0.489,0.529 0.844,0.529 l 0,-0.48 c 0,-1.316 0.398,-2.215 1.378,-2.233 0.827,-0.015 1.339,0.48 1.339,1.439 0,0.751 -0.376,1.097 -0.667,1.282 l 0,0.014 c 0.291,0 0.419,0 0.548,0.033 l 0,1.46 z m 0,3.69 0,1.484 -5.796,0 0,-1.524 2.242,0 0,-0.014 c -0.416,-0.298 -0.594,-0.805 -0.594,-1.309 0,-1.194 1.082,-1.733 2.149,-1.733 1.005,0 2.118,0.539 2.118,1.687 0,0.564 -0.223,1.127 -0.712,1.337 l 0,0.032 0.593,0.04 z m -3.267,-0.786 c 0,0.666 0.714,0.746 1.252,0.746 0.531,0 1.252,-0.119 1.252,-0.746 0,-0.623 -0.721,-0.745 -1.252,-0.745 -0.538,0 -1.252,0.08 -1.252,0.745 z m -2.508,5.736 -0.021,0 0,-1.668 1.166,-0.835 0,0.946 -1.145,1.557 z m 5.776,-1.091 -4.03,0 0,-1.526 4.03,0 0,1.526 z m -2.786,4.588 c -1.115,-0.065 -1.363,-0.947 -1.363,-1.9 0,-0.802 0.274,-1.862 1.267,-1.862 1.46,0 1.036,2.381 1.75,2.381 0.253,0 0.368,-0.216 0.368,-0.514 0,-0.142 -0.08,-0.269 -0.185,-0.361 -0.104,-0.087 -0.24,-0.129 -0.359,-0.102 l 0,-1.445 c 1.226,-0.009 1.426,0.954 1.426,1.941 0,0.924 -0.274,1.926 -1.339,1.926 -0.657,0 -0.955,-0.329 -1.106,-0.808 -0.297,-0.957 -0.281,-1.575 -0.581,-1.575 -0.229,0 -0.36,0.138 -0.36,0.364 0,0.206 0.057,0.336 0.146,0.414 0.079,0.074 0.202,0.098 0.336,0.098 l 0,1.443 z m -1.244,0.327 0.963,0 0,0.789 1.807,0 c 1.235,-0.082 1.378,0.546 1.378,1.579 0,0.225 -0.015,0.474 -0.08,0.816 l -0.905,0 c 0.023,-0.174 0.023,-0.381 0.023,-0.583 0,-0.354 -0.522,-0.288 -0.626,-0.288 l -1.597,0 0,0.882 -0.963,0 0,-0.882 -1.186,0 0.578,-1.524 0.608,0 0,-0.789 z m 4.03,5.448 -4.03,0 0,-1.526 4.03,0 0,1.526 z m -4.72,0.009 -1.077,0 0,-1.54 1.077,0 0,1.54 z m 2.103,5.086 c -1.148,-0.073 -1.548,-1.035 -1.532,-2.054 0,-1.212 0.674,-2.215 2.133,-2.215 1.396,0 2.134,0.691 2.134,2.215 -0.015,0.529 -0.154,1.043 -0.425,1.427 -0.281,0.376 -0.699,0.627 -1.268,0.627 l 0,-1.525 c 0.361,0 0.773,-0.066 0.811,-0.593 0,-0.555 -0.833,-0.586 -1.252,-0.586 -0.417,0 -1.252,0.031 -1.252,0.586 0,0.231 0.065,0.382 0.178,0.473 0.111,0.087 0.272,0.12 0.473,0.12 l 0,1.525 z m 1.324,1.876 c -0.282,0 -0.424,0.176 -0.539,0.403 -0.104,0.206 -0.087,0.512 -0.087,0.835 0.538,0 1.155,-0.06 1.155,-0.716 0,-0.289 -0.242,-0.522 -0.529,-0.522 z m 1.292,2.75 c -0.483,-0.056 -0.659,-0.085 -0.831,-0.085 l -2.067,0 c -0.905,0.017 -1.25,-0.973 -1.25,-1.791 0,-0.45 0.045,-0.969 0.24,-1.388 0.184,-0.405 0.514,-0.704 1.085,-0.696 l 0,1.435 c -0.243,-0.006 -0.602,0.111 -0.619,0.48 -0.026,0.611 0.489,0.533 0.844,0.533 l 0,-0.483 c 0,-1.317 0.398,-2.214 1.378,-2.231 0.827,-0.014 1.339,0.482 1.339,1.437 0,0.754 -0.376,1.096 -0.667,1.283 l 0,0.015 c 0.291,0 0.419,0 0.548,0.032 l 0,1.459 z m -12.092,0.707 c -0.456,0.041 -0.83,0.168 -0.855,0.697 -0.017,0.232 0.087,0.41 0.256,0.53 0.168,0.121 0.384,0.184 0.599,0.184 l 0,-1.411 z m 0.823,2.857 c -1.504,0 -2.441,-0.522 -2.441,-2.16 0,-1.208 0.721,-2.167 1.997,-2.167 1.582,0 2.27,0.643 2.27,2.255 0,0.477 -0.085,0.922 -0.312,1.276 -0.222,0.385 -0.601,0.714 -1.123,0.763 l 0,-1.413 c 0.377,-0.055 0.576,-0.32 0.576,-0.743 0,-0.572 -0.446,-0.709 -0.967,-0.699 l 0,2.888 z m -6.89,-78.184 -10.902,0 0,-2.389 10.902,0 0,2.389 z m 0.137,1.935 0,2.301 -7.932,0 7.932,6.22 0,2.654 -10.902,0 0,-2.206 8.063,0 -8.063,-6.311 0,-2.658 10.902,0 z m 3.606,11.494 -1.715,0 0,-16.041 1.715,0 0,16.041 z m 9.37,-11.941 0,8.063 c 0,0 -6.397,0.362 -6.442,-3.83 -0.048,-4.504 6.442,-4.233 6.442,-4.233 z m 10.271,4.999 c 0,0 0.497,3.739 -3.916,6.532 l -0.68,-0.9 c 0,0 3.291,-1.936 3.291,-5.138 0,-3.151 -2.433,-5.493 -7.748,-5.493 l 0,11.76 c 0,0 -4.822,0.358 -7.345,-3.157 -2.345,-3.287 -1.354,-6.938 -0.093,-8.648 0,0 2.796,-3.876 7.254,-3.876 4.461,0 9.237,3.154 9.237,8.92"
         style="fill:#a90432;fill-opacity:1;fill-rule:evenodd;stroke:none"
         id="path3423"
         inkscape:connector-curvature="0" /></g></g></svg>