<svg id="Capa_1" data-name="Capa 1" xmlns="http://www.w3.org/2000/svg" viewBox="0 0 506.88965 304.70459"><defs><style>.cls-1{fill:#21d51e;}.cls-2{fill:#b6d7a9;}.cls-3{fill:#ffe599;}.cls-4{fill:#facb9d;}.cls-5{fill:red;}</style></defs><title>semaforo-cartografias</title><circle class="cls-1" cx="482.38965" cy="24.5" r="24.5"/><path d="M45.31055,59.627a32.0233,32.0233,0,0,1-10.55616,1.88672c-5.20166,0-9.48486-1.32568-12.85058-4.53857-2.95752-2.85547-4.79346-7.44531-4.79346-12.79981.05078-10.25,7.08838-17.74609,18.61279-17.74609a21.24141,21.24141,0,0,1,8.56739,1.581l-1.0708,3.62061a17.81676,17.81676,0,0,0-7.59815-1.479c-8.36328,0-13.81982,5.20166-13.81982,13.81982,0,8.71973,5.25244,13.87061,13.25879,13.87061a14.46793,14.46793,0,0,0,5.915-.918v-10.25H33.98975V43.10449h11.3208Z" transform="translate(-17.11035 -19)"/><path d="M54.6958,49.63184c.102,6.06836,3.978,8.56738,8.46533,8.56738a16.22991,16.22991,0,0,0,6.8335-1.2749l.76465,3.2124a19.99124,19.99124,0,0,1-8.21,1.52978c-7.59815,0-12.13672-4.99755-12.13672-12.44238,0-7.44531,4.38525-13.31006,11.57568-13.31006,8.05713,0,10.19873,7.08838,10.19873,11.627a16.8776,16.8776,0,0,1-.15283,2.09082Zm13.15674-3.21241c.05127-2.85595-1.17285-7.29248-6.22119-7.29248-4.53858,0-6.52735,4.18164-6.88428,7.29248Z" transform="translate(-17.11035 -19)"/><path d="M100.084,48.61182c0,9.12841-6.32373,13.106-12.29,13.106-6.68018,0-11.83057-4.8955-11.83057-12.69775,0-8.26123,5.40527-13.106,12.23877-13.106C95.29,35.91406,100.084,41.06494,100.084,48.61182Zm-19.582.25537c0,5.40527,3.11035,9.48486,7.4961,9.48486,4.28369,0,7.49609-4.02881,7.49609-9.58691,0-4.18164-2.09082-9.48535-7.394-9.48535C82.79639,39.27979,80.50195,44.17529,80.50195,48.86719Z" transform="translate(-17.11035 -19)"/><path d="M129.918,60.03467a22.02275,22.02275,0,0,1-9.07715,1.63183c-9.689,0-16.981-6.11914-16.981-17.38916,0-10.75976,7.292-18.05224,17.9502-18.05224a18.42535,18.42535,0,0,1,8.15918,1.52978l-1.0708,3.6211a16.1534,16.1534,0,0,0-6.93555-1.42823c-8.05713,0-13.41162,5.15039-13.41162,14.17676,0,8.41406,4.84473,13.81934,13.20752,13.81934A17.752,17.752,0,0,0,129,56.51611Z" transform="translate(-17.11035 -19)"/><path d="M134.86719,55.75146a15.72391,15.72391,0,0,0,7.95508,2.24366c4.53857,0,7.19043-2.397,7.19043-5.86426,0-3.21289-1.83594-5.04883-6.47657-6.8335-5.60937-1.98877-9.07715-4.8955-9.07715-9.74023,0-5.35449,4.437-9.332,11.11719-9.332a15.61332,15.61332,0,0,1,7.59815,1.6831l-1.22364,3.62061a13.69216,13.69216,0,0,0-6.52734-1.63184c-4.69189,0-6.47656,2.80469-6.47656,5.15039,0,3.21289,2.09082,4.79346,6.83349,6.6294,5.81348,2.24365,8.771,5.04834,8.771,10.09668,0,5.30371-3.92676,9.89306-12.03467,9.89306a17.76583,17.76583,0,0,1-8.77148-2.19238Z" transform="translate(-17.11035 -19)"/><path d="M168.169,61.15674,156.9502,26.78613h4.79345l5.35449,16.93018c1.479,4.64062,2.75342,8.82226,3.67139,12.85107h.102c.96924-3.97754,2.397-8.3125,3.92676-12.7998l5.81348-16.98145H185.354L173.06445,61.15674Z" transform="translate(-17.11035 -19)"/><path d="M185.15332,63.19629,199.38086,26.2251h3.46728L188.56982,63.19629Z" transform="translate(-17.11035 -19)"/><path d="M232.73242,59.627a32.02329,32.02329,0,0,1-10.55615,1.88672c-5.20166,0-9.48486-1.32568-12.85059-4.53857-2.95752-2.85547-4.79345-7.44531-4.79345-12.79981.05078-10.25,7.08838-17.74609,18.61279-17.74609a21.24131,21.24131,0,0,1,8.56738,1.581l-1.0708,3.62061a17.81674,17.81674,0,0,0-7.59814-1.479c-8.36328,0-13.81983,5.20166-13.81983,13.81982,0,8.71973,5.25244,13.87061,13.25879,13.87061a14.46789,14.46789,0,0,0,5.915-.918v-10.25h-6.98584V43.10449h11.3208Z" transform="translate(-17.11035 -19)"/><path d="M242.11768,49.63184c.102,6.06836,3.978,8.56738,8.46533,8.56738a16.22983,16.22983,0,0,0,6.83349-1.2749l.76465,3.2124a19.9912,19.9912,0,0,1-8.21,1.52978c-7.59814,0-12.13672-4.99755-12.13672-12.44238,0-7.44531,4.38526-13.31006,11.57569-13.31006,8.05713,0,10.19873,7.08838,10.19873,11.627a16.87718,16.87718,0,0,1-.15284,2.09082Zm13.15673-3.21241c.05127-2.85595-1.17285-7.29248-6.22119-7.29248-4.53857,0-6.52734,4.18164-6.88427,7.29248Z" transform="translate(-17.11035 -19)"/><path d="M287.50586,48.61182c0,9.12841-6.32373,13.106-12.29,13.106-6.68018,0-11.83057-4.8955-11.83057-12.69775,0-8.26123,5.40528-13.106,12.23877-13.106C282.71191,35.91406,287.50586,41.06494,287.50586,48.61182Zm-19.582.25537c0,5.40527,3.11035,9.48486,7.49609,9.48486,4.28369,0,7.4961-4.02881,7.4961-9.58691,0-4.18164-2.09082-9.48535-7.394-9.48535C270.21826,39.27979,267.92383,44.17529,267.92383,48.86719Z" transform="translate(-17.11035 -19)"/><path d="M300.35938,26.78613h4.43652V49.78467c0,9.12842-4.48779,11.9331-10.40332,11.9331a14.36208,14.36208,0,0,1-4.74219-.81591l.6626-3.62061a10.58515,10.58515,0,0,0,3.72265.6626c3.978,0,6.32374-1.78467,6.32374-8.51612Z" transform="translate(-17.11035 -19)"/><path d="M311.57959,55.75146a15.72391,15.72391,0,0,0,7.95508,2.24366c4.53857,0,7.19043-2.397,7.19043-5.86426,0-3.21289-1.83594-5.04883-6.47656-6.8335-5.60938-1.98877-9.07666-4.8955-9.07666-9.74023,0-5.35449,4.43652-9.332,11.11669-9.332a15.61332,15.61332,0,0,1,7.59815,1.6831l-1.22363,3.62061a13.6922,13.6922,0,0,0-6.52735-1.63184c-4.69189,0-6.47656,2.80469-6.47656,5.15039,0,3.21289,2.09082,4.79346,6.8335,6.6294,5.813,2.24365,8.771,5.04834,8.771,10.09668,0,5.30371-3.92676,9.89306-12.03467,9.89306a17.76586,17.76586,0,0,1-8.77148-2.19238Z" transform="translate(-17.11035 -19)"/><path d="M366.707,43.61426c0,11.831-7.18994,18.10351-15.96142,18.10351-9.07715,0-15.45118-7.03759-15.45118-17.44043,0-10.91259,6.78223-18.05224,15.96143-18.05224C360.63867,26.2251,366.707,33.41553,366.707,43.61426Zm-26.67041.561c0,7.34326,3.978,13.92188,10.96436,13.92188,7.03711,0,11.01464-6.47656,11.01464-14.27881,0-6.833-3.56982-13.97266-10.96386-13.97266C343.7085,29.8457,340.03662,36.62842,340.03662,44.17529Z" transform="translate(-17.11035 -19)"/><path d="M372.47314,61.15674V26.78613h4.84473l11.01465,17.38916a97.313,97.313,0,0,1,6.17041,11.168l.10205-.05078c-.40771-4.58984-.50977-8.77148-.50977-14.12549V26.78613h4.18165V61.15674h-4.4878L382.876,43.71631a109.10913,109.10913,0,0,1-6.4253-11.47363l-.15283.05078c.25488,4.335.35694,8.46533.35694,14.17675V61.15674Z" transform="translate(-17.11035 -19)"/><circle class="cls-2" cx="482.38965" cy="86.5" r="24.5"/><circle class="cls-3" cx="482.38965" cy="150.5" r="24.5"/><circle class="cls-4" cx="482.38965" cy="213.5" r="24.5"/><circle class="cls-5" cx="482.38965" cy="277.5" r="24.5"/><path d="M18.68311,118.64209a15.724,15.724,0,0,0,7.95507,2.24365c4.53858,0,7.19043-2.397,7.19043-5.86426,0-3.21289-1.83593-5.04882-6.47656-6.83349-5.60937-1.98877-9.07715-4.89551-9.07715-9.74024,0-5.35449,4.437-9.332,11.11719-9.332a15.61314,15.61314,0,0,1,7.59814,1.68311l-1.22363,3.6206a13.69229,13.69229,0,0,0-6.52734-1.63183c-4.6919,0-6.47656,2.80469-6.47656,5.15039,0,3.21289,2.09082,4.79346,6.83349,6.62939,5.81348,2.24366,8.771,5.04834,8.771,10.09668,0,5.30371-3.92676,9.89307-12.03467,9.89307a17.76583,17.76583,0,0,1-8.77148-2.19238Z" transform="translate(-17.11035 -19)"/><path d="M44.28467,87.84082H48.772v15.40039h.102a8.33137,8.33137,0,0,1,3.21289-3.16162,9.23829,9.23829,0,0,1,4.58936-1.2749c3.31494,0,8.61816,2.04,8.61816,10.55615v14.68652h-4.4873V109.87061c0-3.97754-1.479-7.34327-5.71143-7.34327a6.44791,6.44791,0,0,0-6.01758,4.4878,5.4339,5.4339,0,0,0-.30615,2.1416v14.89062h-4.4873Z" transform="translate(-17.11035 -19)"/><path d="M86.25586,124.04736l-.35693-3.11084h-.15284a9.19314,9.19314,0,0,1-7.54736,3.67188c-4.99756,0-7.54736-3.51856-7.54736-7.08838,0-5.96631,5.30371-9.23,14.83984-9.1792v-.50977c0-2.04-.561-5.71142-5.60986-5.71142a12.29661,12.29661,0,0,0-6.4253,1.83594l-1.01953-2.958a15.3189,15.3189,0,0,1,8.10791-2.19287c7.54737,0,9.3833,5.15088,9.3833,10.09717v9.23a34.78247,34.78247,0,0,0,.40772,5.91552Zm-.6626-12.5957c-4.89551-.10205-10.4541.76514-10.4541,5.55859a3.97066,3.97066,0,0,0,4.23242,4.28321,6.14019,6.14019,0,0,0,5.96631-4.13037,4.67355,4.67355,0,0,0,.25537-1.42774Z" transform="translate(-17.11035 -19)"/><path d="M97.17139,107.42285c0-3.16162-.10205-5.71142-.2041-8.05713h4.0288l.20362,4.23291h.10205a9.70384,9.70384,0,0,1,8.77148-4.79394c5.96631,0,10.45362,5.04883,10.45362,12.54492,0,8.87305-5.40528,13.25879-11.21875,13.25879a8.65518,8.65518,0,0,1-7.59815-3.87549h-.102v13.41162H97.17139Zm4.43652,6.57861a10.10517,10.10517,0,0,0,.2041,1.83594,6.92465,6.92465,0,0,0,6.73145,5.25244c4.74218,0,7.49609-3.876,7.49609-9.53613,0-4.94678-2.60059-9.1792-7.34326-9.1792a7.16062,7.16062,0,0,0-6.78223,5.5586,7.26163,7.26163,0,0,0-.30615,1.83544Z" transform="translate(-17.11035 -19)"/><path d="M128.688,112.52246c.102,6.06836,3.97754,8.56738,8.46533,8.56738a16.22976,16.22976,0,0,0,6.8335-1.2749l.76464,3.2124a19.99116,19.99116,0,0,1-8.21,1.52979c-7.59814,0-12.13671-4.99756-12.13671-12.44238,0-7.44532,4.38525-13.31006,11.57568-13.31006,8.05713,0,10.19873,7.08838,10.19873,11.627a16.87727,16.87727,0,0,1-.15283,2.09082Zm13.15674-3.2124c.05127-2.856-1.17285-7.29248-6.22119-7.29248-4.53858,0-6.52735,4.18164-6.88428,7.29248Z" transform="translate(-17.11035 -19)"/><path d="M152.19922,124.04736V102.78271h-3.46777v-3.417h3.46777V98.04c0-6.52734,3.82471-10.75977,10.75976-10.75977a12.35114,12.35114,0,0,1,6.27247,1.63184l-1.27491,3.4165a9.43169,9.43169,0,0,0-5.20166-1.42773c-4.74218,0-6.11914,3.31445-6.11914,7.24121v1.22363h14.32959v24.68164h-4.43652V102.78271h-9.89307v21.26465Z" transform="translate(-17.11035 -19)"/><path d="M178.4126,87.84082h4.4873v36.20654h-4.4873Z" transform="translate(-17.11035 -19)"/><path d="M192.94678,112.52246c.10205,6.06836,3.97754,8.56738,8.46533,8.56738a16.22976,16.22976,0,0,0,6.8335-1.2749l.76464,3.2124a19.99116,19.99116,0,0,1-8.21,1.52979c-7.59814,0-12.13672-4.99756-12.13672-12.44238,0-7.44532,4.38526-13.31006,11.57569-13.31006,8.05713,0,10.19873,7.08838,10.19873,11.627a16.87727,16.87727,0,0,1-.15283,2.09082Zm13.15674-3.2124c.05127-2.856-1.17286-7.29248-6.2212-7.29248-4.53857,0-6.52734,4.18164-6.88427,7.29248Z" transform="translate(-17.11035 -19)"/><path d="M212.22559,126.08691l14.22753-36.97119h3.46729l-14.27832,36.97119Z" transform="translate(-17.11035 -19)"/><path d="M233.644,89.67676h4.43653V106.25h.15332c.918-1.32568,1.83545-2.5498,2.70263-3.67139l10.50489-12.90185h5.50732l-12.44287,14.58447,13.41162,19.78613H252.665L241.34424,107.168l-3.26367,3.77392v13.10547H233.644Z" transform="translate(-17.11035 -19)"/><path d="M290.251,108.95312c-.25489-4.79394-.561-10.55615-.51026-14.83984h-.15283c-1.17285,4.02881-2.60059,8.3125-4.33447,13.05469l-6.06836,16.67529h-3.36572l-5.5586-16.36914c-1.63183-4.84473-3.00879-9.28125-3.97754-13.36084h-.10205c-.10205,4.28369-.35693,10.0459-.6626,15.19678l-.918,14.7373h-4.23291l2.397-34.3706h5.66064l5.86426,16.62451c1.42774,4.23242,2.60059,8.00586,3.46777,11.57568h.15284c.8667-3.46777,2.09082-7.24121,3.6206-11.57568l6.11914-16.62451h5.66065l2.1416,34.3706h-4.33447Z" transform="translate(-17.11035 -19)"/><path d="M302.28906,89.67676h4.43653v30.64795h14.68652v3.72265h-19.123Z" transform="translate(-17.11035 -19)"/><path d="M322.43408,126.08691l14.22754-36.97119h3.46729l-14.27832,36.97119Z" transform="translate(-17.11035 -19)"/><path d="M343.85254,89.67676h4.43652V106.25h.15332c.91748-1.32568,1.83545-2.5498,2.70264-3.67139L361.6499,89.67676h5.50733l-12.44287,14.58447,13.4121,19.78613h-5.25292L351.55273,107.168l-3.26367,3.77392v13.10547h-4.43652Z" transform="translate(-17.11035 -19)"/><path d="M400.45947,108.95312c-.25488-4.79394-.561-10.55615-.51025-14.83984h-.15283c-1.17285,4.02881-2.60059,8.3125-4.33448,13.05469l-6.06836,16.67529h-3.36572l-5.55859-16.36914c-1.63184-4.84473-3.00879-9.28125-3.97754-13.36084h-.102c-.10205,4.28369-.35694,10.0459-.6626,15.19678l-.918,14.7373h-4.23291l2.397-34.3706h5.66016l5.86475,16.62451c1.42773,4.23242,2.60058,8.00586,3.46777,11.57568h.15283c.8667-3.46777,2.09082-7.24121,3.62061-11.57568l6.11914-16.62451H403.519l2.1416,34.3706h-4.33447Z" transform="translate(-17.11035 -19)"/><path d="M410.15186,121.44678l19.07226-27.89453v-.15284H411.78369V89.67676h23.20264v2.70263l-18.97022,27.79249v.15283h19.2251v3.72265H410.15186Z" transform="translate(-17.11035 -19)"/><path d="M48.26025,171.95312c-.25488-4.79394-.561-10.55615-.51025-14.83984h-.15283c-1.17285,4.02881-2.60059,8.3125-4.33447,13.05469l-6.06836,16.67529H33.82861L28.27,170.47412c-1.63184-4.84473-3.00879-9.28125-3.97754-13.36084h-.10205c-.102,4.28369-.35693,10.0459-.6626,15.19678l-.918,14.7373H18.377l2.397-34.3706h5.66015l5.86475,16.62451c1.42773,4.23242,2.60058,8.00586,3.46777,11.57568h.15283c.8667-3.46777,2.09082-7.24121,3.62061-11.57568l6.11914-16.62451h5.66064l2.14161,34.3706H49.127Z" transform="translate(-17.11035 -19)"/><path d="M74.11768,187.04736l-.35694-3.11084h-.15283a9.19315,9.19315,0,0,1-7.54736,3.67188c-4.99756,0-7.54737-3.51856-7.54737-7.08838,0-5.96631,5.30371-9.23,14.83985-9.1792v-.50977c0-2.04-.561-5.71142-5.60938-5.71142a12.297,12.297,0,0,0-6.42578,1.83594l-1.01953-2.958a15.31762,15.31762,0,0,1,8.10791-2.19287c7.54736,0,9.3833,5.15088,9.3833,10.09717v9.23a34.78144,34.78144,0,0,0,.40772,5.91552Zm-.66309-12.5957c-4.89551-.102-10.45361.76514-10.45361,5.55859a3.97066,3.97066,0,0,0,4.23242,4.28321,6.14019,6.14019,0,0,0,5.96631-4.13037,4.67273,4.67273,0,0,0,.25488-1.42774Z" transform="translate(-17.11035 -19)"/><path d="M85.03271,170.42285c0-3.16162-.102-5.71142-.2041-8.05713h4.02881l.20362,4.23291h.102a9.70383,9.70383,0,0,1,8.77148-4.79394c5.96631,0,10.45361,5.04883,10.45361,12.54492,0,8.873-5.40527,13.25879-11.21875,13.25879a8.65518,8.65518,0,0,1-7.59814-3.87549h-.10205v13.41162H85.03271Zm4.43653,6.57861a10.10517,10.10517,0,0,0,.2041,1.83594,6.92464,6.92464,0,0,0,6.73145,5.25244c4.74218,0,7.49609-3.876,7.49609-9.53613,0-4.94678-2.60059-9.1792-7.34326-9.1792a7.16062,7.16062,0,0,0-6.78223,5.5586,7.26163,7.26163,0,0,0-.30615,1.83544Z" transform="translate(-17.11035 -19)"/><path d="M113.84717,187.04736c.102-1.68261.2041-4.18164.2041-6.37451v-29.832h4.43652v15.50244h.102a9.19325,9.19325,0,0,1,8.41407-4.53857c6.11963,0,10.4541,5.09961,10.40283,12.5957,0,8.82227-5.55811,13.208-11.06592,13.208a8.7932,8.7932,0,0,1-8.26123-4.64063h-.15283l-.2041,4.07959Zm4.64062-9.89306a8.39411,8.39411,0,0,0,.2041,1.63183,6.92411,6.92411,0,0,0,6.73145,5.25244c4.69141,0,7.49609-3.8247,7.49609-9.48486,0-4.94678-2.5498-9.1792-7.34326-9.1792a7.15487,7.15487,0,0,0-6.83349,5.50733,8.8447,8.8447,0,0,0-.25489,1.83593Z" transform="translate(-17.11035 -19)"/><path d="M165.40527,174.50244c0,9.12842-6.32373,13.106-12.29,13.106-6.68017,0-11.83056-4.89551-11.83056-12.69776,0-8.26123,5.40527-13.106,12.23877-13.106C160.61133,161.80469,165.40527,166.95557,165.40527,174.50244Zm-19.582.25537c0,5.40528,3.11035,9.48487,7.4961,9.48487,4.28369,0,7.49609-4.02881,7.49609-9.58692,0-4.18164-2.09082-9.48535-7.394-9.48535C148.11768,165.17041,145.82324,170.06592,145.82324,174.75781Z" transform="translate(-17.11035 -19)"/><path d="M172.44531,162.36572l3.51856,5.30371c.918,1.377,1.6831,2.65186,2.49853,4.02832h.15332c.81592-1.47851,1.63184-2.75341,2.44776-4.07959l3.46777-5.25244h4.84424l-8.41406,11.93311,8.66894,12.74853h-5.09912l-3.62061-5.55859c-.96923-1.42773-1.78515-2.80469-2.65185-4.2832h-.102c-.81592,1.47851-1.68311,2.80468-2.60059,4.2832l-3.56982,5.55859h-4.94678l8.77149-12.5957-8.36329-12.08594Z" transform="translate(-17.11035 -19)"/><path d="M210.64355,187.04736l-11.21875-34.3706h4.79346l5.35449,16.93017c1.47852,4.64063,2.75342,8.82227,3.67139,12.85108h.10205c.96875-3.97754,2.397-8.3125,3.92676-12.79981l5.81348-16.98144h4.74218l-12.28955,34.3706Z" transform="translate(-17.11035 -19)"/><path d="M232.21729,175.52246c.10205,6.06836,3.97753,8.56738,8.46533,8.56738a16.22967,16.22967,0,0,0,6.83349-1.2749l.76465,3.2124a19.99116,19.99116,0,0,1-8.21,1.52979c-7.59814,0-12.13672-4.99756-12.13672-12.44238,0-7.44532,4.38526-13.31006,11.57569-13.31006,8.05712,0,10.19873,7.08838,10.19873,11.62695a16.87685,16.87685,0,0,1-.15284,2.09082Zm13.15673-3.2124c.05127-2.856-1.17285-7.29248-6.22119-7.29248-4.53857,0-6.52734,4.18164-6.88428,7.29248Z" transform="translate(-17.11035 -19)"/><path d="M272.8623,186.12939a16.53253,16.53253,0,0,1-7.08837,1.42774c-7.44532,0-12.28955-5.04834-12.28955-12.5957,0-7.59815,5.20117-13.10547,13.2583-13.10547a15.00462,15.00462,0,0,1,6.22168,1.2749l-1.02,3.46777a10.40311,10.40311,0,0,0-5.20166-1.17285c-5.66016,0-8.71973,4.18115-8.71973,9.332,0,5.71143,3.67139,9.23,8.56689,9.23a12.746,12.746,0,0,0,5.50733-1.22412Z" transform="translate(-17.11035 -19)"/><path d="M284.18457,155.27734v7.08838h6.42529v3.417h-6.42529v13.30958c0,3.05957.86719,4.79345,3.36572,4.79345a9.96282,9.96282,0,0,0,2.60059-.30615l.2041,3.36572a10.9848,10.9848,0,0,1-3.97754.61182,6.21712,6.21712,0,0,1-4.84424-1.88672c-1.2749-1.32568-1.73388-3.51855-1.73388-6.42529V165.78271h-3.82471v-3.417h3.82471V156.4502Z" transform="translate(-17.11035 -19)"/><path d="M317.68994,174.50244c0,9.12842-6.32373,13.106-12.29,13.106-6.68017,0-11.83056-4.89551-11.83056-12.69776,0-8.26123,5.40527-13.106,12.23877-13.106C312.896,161.80469,317.68994,166.95557,317.68994,174.50244Zm-19.582.25537c0,5.40528,3.11035,9.48487,7.49609,9.48487,4.2837,0,7.4961-4.02881,7.4961-9.58692,0-4.18164-2.09082-9.48535-7.394-9.48535C300.40234,165.17041,298.10791,170.06592,298.10791,174.75781Z" transform="translate(-17.11035 -19)"/><path d="M323.353,170.06592c0-2.90674-.05078-5.40528-.2041-7.7002h3.92675l.15284,4.84473h.2041c1.12207-3.31494,3.8247-5.40576,6.83349-5.40576a4.84683,4.84683,0,0,1,1.27442.15332v4.23242a6.73283,6.73283,0,0,0-1.52979-.15283c-3.16162,0-5.40527,2.39648-6.01709,5.7622a12.62579,12.62579,0,0,0-.2041,2.09082v13.15674H323.353Z" transform="translate(-17.11035 -19)"/><path d="M355.43115,156.4502H344.97754v-3.77344h25.44629v3.77344H359.919v30.59716h-4.4878Z" transform="translate(-17.11035 -19)"/><path d="M378.4834,155.43066a2.77941,2.77941,0,0,1-5.5586,0,2.73423,2.73423,0,0,1,2.80469-2.80468A2.66349,2.66349,0,0,1,378.4834,155.43066Zm-4.99756,31.6167V162.36572h4.4873v24.68164Z" transform="translate(-17.11035 -19)"/><path d="M385.41992,150.84082h4.48731v36.20654h-4.48731Z" transform="translate(-17.11035 -19)"/><path d="M399.9541,175.52246c.10205,6.06836,3.978,8.56738,8.46533,8.56738a16.22976,16.22976,0,0,0,6.8335-1.2749l.76465,3.2124a19.9912,19.9912,0,0,1-8.21,1.52979c-7.59815,0-12.13672-4.99756-12.13672-12.44238,0-7.44532,4.38525-13.31006,11.57568-13.31006,8.05713,0,10.19873,7.08838,10.19873,11.62695a16.87727,16.87727,0,0,1-.15283,2.09082Zm13.15674-3.2124c.05127-2.856-1.17285-7.29248-6.22119-7.29248-4.53858,0-6.52735,4.18164-6.88428,7.29248Z" transform="translate(-17.11035 -19)"/><path d="M422.394,182.458a11.76126,11.76126,0,0,0,5.915,1.78467c3.26367,0,4.79395-1.63184,4.79395-3.67188,0-2.1416-1.27491-3.31445-4.58985-4.53857-4.43652-1.58057-6.52734-4.02832-6.52734-6.98584,0-3.978,3.21289-7.2417,8.51611-7.2417a12.31665,12.31665,0,0,1,6.06836,1.53027l-1.12158,3.26367a9.60394,9.60394,0,0,0-5.04883-1.42822c-2.65136,0-4.13037,1.52979-4.13037,3.36572,0,2.04,1.479,2.958,4.69141,4.18164,4.28369,1.63184,6.47656,3.77344,6.47656,7.44532,0,4.33447-3.36572,7.394-9.23,7.394a14.07417,14.07417,0,0,1-6.93555-1.68262Z" transform="translate(-17.11035 -19)"/><path d="M19.29492,216.13574a46.2091,46.2091,0,0,1,8.51612-.71386c4.74267,0,7.80224.86669,9.94433,2.80468a8.56131,8.56131,0,0,1,2.70264,6.52735,9.02425,9.02425,0,0,1-6.47656,8.771v.15332c2.65185.91748,4.23291,3.36524,5.04882,6.93506,1.12159,4.79346,1.9375,8.1084,2.65137,9.43408H37.09229c-.561-.96875-1.32569-3.92675-2.29493-8.21-1.01953-4.74267-2.85547-6.52734-6.88427-6.68066H23.73145v14.89062H19.29492ZM23.73145,231.791H28.27c4.74268,0,7.75146-2.60059,7.75146-6.52735,0-4.43652-3.21289-6.374-7.90429-6.42529a18.245,18.245,0,0,0-4.38574.4082Z" transform="translate(-17.11035 -19)"/><path d="M60.85791,250.04736l-.35693-3.11084h-.15284a9.19314,9.19314,0,0,1-7.54736,3.67188c-4.99756,0-7.54736-3.51856-7.54736-7.08838,0-5.96631,5.30371-9.23,14.83984-9.1792v-.50977c0-2.04-.561-5.71142-5.60937-5.71142a12.297,12.297,0,0,0-6.42578,1.83594l-1.01954-2.958a15.31762,15.31762,0,0,1,8.10791-2.19287c7.54737,0,9.38331,5.15088,9.38331,10.09717v9.23a34.78253,34.78253,0,0,0,.40771,5.91552Zm-.66309-12.5957c-4.8955-.102-10.45361.76514-10.45361,5.55859a3.97066,3.97066,0,0,0,4.23242,4.28321,6.14019,6.14019,0,0,0,5.96631-4.13037,4.67273,4.67273,0,0,0,.25488-1.42774ZM62.439,214.708,56.21729,222H53.00488l4.48731-7.292Z" transform="translate(-17.11035 -19)"/><path d="M71.16113,245.458a11.76126,11.76126,0,0,0,5.915,1.78467c3.26367,0,4.79395-1.63184,4.79395-3.67188,0-2.1416-1.27491-3.31445-4.58985-4.53857-4.43652-1.58057-6.52734-4.02832-6.52734-6.98584,0-3.978,3.21289-7.2417,8.51611-7.2417A12.31814,12.31814,0,0,1,85.3374,226.335l-1.12158,3.26367a9.60394,9.60394,0,0,0-5.04883-1.42822c-2.65137,0-4.13037,1.52979-4.13037,3.36572,0,2.04,1.479,2.958,4.69141,4.18164,4.28369,1.63184,6.47656,3.77344,6.47656,7.44532,0,4.33447-3.36572,7.394-9.23,7.394a14.07417,14.07417,0,0,1-6.93555-1.68262Z" transform="translate(-17.11035 -19)"/><path d="M97.37451,218.27734v7.08838h6.42529v3.417H97.37451v13.30958c0,3.05957.86719,4.79345,3.36572,4.79345a9.97012,9.97012,0,0,0,2.60108-.30615l.20361,3.36572a10.9848,10.9848,0,0,1-3.97754.61182,6.21714,6.21714,0,0,1-4.84424-1.88672c-1.2749-1.32568-1.73388-3.51855-1.73388-6.42529V228.78271H89.16455v-3.417h3.82471V219.4502Z" transform="translate(-17.11035 -19)"/><path d="M111.04248,238.52246c.10205,6.06836,3.97754,8.56738,8.46533,8.56738a16.22976,16.22976,0,0,0,6.8335-1.2749l.76465,3.2124a19.9912,19.9912,0,0,1-8.21,1.52979c-7.59815,0-12.13672-4.99756-12.13672-12.44238,0-7.44532,4.38525-13.31006,11.57568-13.31006,8.05713,0,10.19873,7.08838,10.19873,11.62695a16.87727,16.87727,0,0,1-.15283,2.09082Zm13.15674-3.2124c.05127-2.856-1.17285-7.29248-6.22119-7.29248-4.53858,0-6.52735,4.18164-6.88428,7.29248Z" transform="translate(-17.11035 -19)"/><path d="M134.09424,233.06592c0-2.90674-.05078-5.40528-.2041-7.7002h3.92675l.15284,4.84473h.2041c1.12207-3.31494,3.82471-5.40576,6.83349-5.40576a4.84683,4.84683,0,0,1,1.27442.15332v4.23242a6.73283,6.73283,0,0,0-1.52979-.15283c-3.16162,0-5.40527,2.39648-6.01709,5.7622a12.62579,12.62579,0,0,0-.2041,2.09082v13.15674h-4.43652Z" transform="translate(-17.11035 -19)"/><path d="M19.10107,279.08447a51.42743,51.42743,0,0,1,8.51612-.66308c4.38574,0,7.59863,1.02,9.63818,2.85547a9.24125,9.24125,0,0,1,3.00879,7.19043,10.11689,10.11689,0,0,1-2.65186,7.34326c-2.3457,2.499-6.17041,3.77392-10.50488,3.77392a15.27832,15.27832,0,0,1-3.56982-.30615v13.76856H19.10107Zm4.43653,16.57324a14.88553,14.88553,0,0,0,3.67187.35694c5.35449,0,8.61817-2.60059,8.61817-7.34326,0-4.53858-3.21289-6.73145-8.1084-6.73145a18.61427,18.61427,0,0,0-4.18164.35694Z" transform="translate(-17.11035 -19)"/><path d="M46.23291,279.13525a63.58258,63.58258,0,0,1,9.43408-.71386c6.37451,0,10.91309,1.479,13.92188,4.28369,3.05957,2.80469,4.84424,6.78222,4.84424,12.34082,0,5.60937-1.73389,10.19873-4.94629,13.36035C66.27393,311.61914,60.9707,313.353,54.29,313.353a71.62064,71.62064,0,0,1-8.05713-.40821Zm4.43652,30.39307a28.007,28.007,0,0,0,4.4878.25488c9.48486,0,14.63525-5.30322,14.63525-14.58447.05127-8.1084-4.53857-13.25879-13.92139-13.25879a25.21446,25.21446,0,0,0-5.20166.459Z" transform="translate(-17.11035 -19)"/><path d="M80.19824,278.67627H98.70947v3.72266H84.63477v11.42285h13.0039v3.67187H84.63477v15.55323H80.19824Z" transform="translate(-17.11035 -19)"/><path d="M111.92041,315.08643l14.22754-36.9712h3.46728l-14.27832,36.9712Z" transform="translate(-17.11035 -19)"/><path d="M148.58691,278.67627v34.37061h-4.43652V278.67627Z" transform="translate(-17.11035 -19)"/><path d="M156.69629,295.0459c0-2.54981-.05078-4.64063-.2041-6.68067H160.419l.2041,3.97754h.15283a8.50685,8.50685,0,0,1,7.751-4.53857,7.29645,7.29645,0,0,1,6.98632,4.94678h.102a10.17111,10.17111,0,0,1,2.75391-3.21289,8.42529,8.42529,0,0,1,5.45654-1.73389c3.26368,0,8.10791,2.14209,8.10791,10.709v14.5337h-4.38525V299.07422c0-4.74268-1.73389-7.59815-5.35449-7.59815a5.81012,5.81012,0,0,0-5.30371,4.07959,7.38505,7.38505,0,0,0-.35694,2.24366v15.24756h-4.38574V298.2583c0-3.92676-1.7334-6.78223-5.15039-6.78223-2.80469,0-4.84424,2.24366-5.55811,4.48731a6.17883,6.17883,0,0,0-.35693,2.19287v14.89063h-4.38574Z" transform="translate(-17.11035 -19)"/><path d="M212.897,313.04688,212.54,309.936h-.15283a9.1932,9.1932,0,0,1-7.54737,3.67187c-4.99755,0-7.54736-3.51855-7.54736-7.08838,0-5.96631,5.30371-9.23,14.83984-9.1792v-.50976c0-2.04-.561-5.71143-5.60986-5.71143a12.29658,12.29658,0,0,0-6.42529,1.83594l-1.01953-2.958a15.3189,15.3189,0,0,1,8.10791-2.19287c7.54736,0,9.3833,5.15088,9.3833,10.09717v9.23a34.78273,34.78273,0,0,0,.40771,5.91553Zm-.66259-12.59571c-4.89551-.102-10.45411.76514-10.45411,5.5586a3.97066,3.97066,0,0,0,4.23243,4.2832,6.14017,6.14017,0,0,0,5.9663-4.13037,4.67357,4.67357,0,0,0,.25538-1.42774Z" transform="translate(-17.11035 -19)"/><path d="M245.07666,288.36523c-.102,1.78516-.20361,3.77393-.20361,6.78223v14.32959c0,5.66065-1.12207,9.12842-3.519,11.27-2.39648,2.24365-5.86425,2.95752-8.97509,2.95752a15.93149,15.93149,0,0,1-8.21-2.03955l1.12207-3.4165a13.92145,13.92145,0,0,0,7.24121,1.9375c4.58935,0,7.95507-2.39649,7.95507-8.61817v-2.75342h-.102a8.811,8.811,0,0,1-7.853,4.13037c-6.11963,0-10.50489-5.20117-10.50489-12.03466,0-8.36328,5.45606-13.106,11.1167-13.106a8.20938,8.20938,0,0,1,7.7002,4.28369h.102l.2041-3.72266Zm-4.64014,9.74024a6.38924,6.38924,0,0,0-.25537-2.04,6.46377,6.46377,0,0,0-6.272-4.74219c-4.28369,0-7.34326,3.62061-7.34326,9.332,0,4.84424,2.44775,8.87305,7.292,8.87305a6.55968,6.55968,0,0,0,6.22119-4.58984,7.79436,7.79436,0,0,0,.35742-2.39649Z" transform="translate(-17.11035 -19)"/><path d="M254.81885,301.522c.102,6.06836,3.978,8.56739,8.46533,8.56739a16.22973,16.22973,0,0,0,6.8335-1.27491l.76464,3.21241a19.99137,19.99137,0,0,1-8.21,1.52978c-7.59814,0-12.13672-4.99756-12.13672-12.44238,0-7.44531,4.38526-13.31006,11.57569-13.31006,8.05713,0,10.19873,7.08838,10.19873,11.627a16.87727,16.87727,0,0,1-.15283,2.09082Zm13.15674-3.2124c.05127-2.856-1.17286-7.29248-6.2212-7.29248-4.53857,0-6.52734,4.18164-6.88427,7.29248Z" transform="translate(-17.11035 -19)"/><path d="M277.87109,295.0459c0-2.54981-.05078-4.64063-.2041-6.68067h3.97754l.25488,4.07959h.10205a9.07665,9.07665,0,0,1,8.15918-4.64062c3.417,0,8.72022,2.04,8.72022,10.50537v14.73731h-4.48731V298.81934c0-3.97754-1.479-7.29248-5.71142-7.29248a6.37573,6.37573,0,0,0-6.01758,4.58984,6.44862,6.44862,0,0,0-.30615,2.09082v14.83936h-4.48731Z" transform="translate(-17.11035 -19)"/></svg>