<?xml version="1.0" encoding="utf-8"?>
<!-- Generator: Adobe Illustrator 19.0.0, SVG Export Plug-In . SVG Version: 6.00 Build 0)  -->
<svg version="1.1" id="layer" xmlns="http://www.w3.org/2000/svg" xmlns:xlink="http://www.w3.org/1999/xlink" x="0px" y="0px"
	 viewBox="-153 -46 652 652" style="enable-background:new -153 -46 652 652;" xml:space="preserve">
<style type="text/css">
	.st0{fill:#C11F1F;}
</style>
<path d="M-102.8,367.4v-56.6H-61v-20.6h-41.8v-30.6h55.9v-20.6h-79.8v128.5H-102.8L-102.8,367.4z M-39.1,238.8h21.5v128.5h-21.5
	V238.8z M48.1,321.1c0,20.6-5.7,30.3-17.7,30.3c-12,0-17.7-9.6-17.7-30.3s5.7-30.3,17.7-30.3C42.4,290.8,48.1,300.4,48.1,321.1z
	 M-8.8,321.1c0,29.4,14.7,48.1,39.2,48.1s39.2-18.7,39.2-48.1S54.9,273,30.4,273S-8.8,291.7-8.8,321.1z M129,274.8v66.8
	c-3.6,4.3-10.8,9.8-20.1,9.8c-7.3,0-11.1-3.9-11.1-16.4v-60.2H76.2v63.4c0,18.9,8.7,31,26.7,31c10.6,0,19.8-6.1,27.8-11.7v10h19.8
	v-92.6H129L129,274.8z M184.2,367.4v-56.3c0-2.3,9.4-15,20.1-15c1.6,0,2.8,0,3.8,0.2V273c-12.8,0.4-20.1,6.6-25.3,17.6h-0.3v-15.8
	h-19.8v92.6H184.2z M236.9,274.8h-21.5v92.6h21.5C236.9,367.4,236.9,274.8,236.9,274.8z M236.9,257.7v-20.6h-21.5v20.6H236.9z
	 M310.1,287.1c-7.8-9.4-19.8-14.1-31.8-14.1c-15.6,0-29.8,9.6-29.8,26.9c0,32.2,45.1,26.5,45.1,42.4c0,6.2-5.2,10.5-12.8,10.5
	c-9.2,0-16-6.2-21-13.4l-14.4,11c8,12.1,19.8,18.7,34.2,18.7c18.9,0,33.1-8.5,33.1-27.8c0-33.8-45.1-27.1-45.1-42.9
	c0-5.5,3.8-9.1,12.1-9.1c6.8,0,12.5,5,16.8,9.8L310.1,287.1L310.1,287.1z M342.6,367.4v-66.8c3.6-4.3,10.8-9.8,20.1-9.8
	c7.3,0,11.1,3.9,11.1,16.4v60.2h21.5V304c0-18.9-8.7-31-26.7-31c-10.6,0-19.4,6.1-26,11.7v-45.9h-21.5v128.5H342.6L342.6,367.4z"/>
<path class="st0" d="M452.6,231.5l20.6,6.1l-0.7,3.8L451,239l16.7,13.6l-2,3l-18.8-10.3l10,19l-2.9,2l-13.6-16.6l2.2,21.3l-3.6,0.7
	l-6.3-20.6l-6.1,20.6l-3.8-0.7l2.2-21.3l-13.4,16.6l-3.1-2l10.2-19l-18.9,10.3l-2-3l16.8-13.6l-21.5,2.3l-0.7-3.8l20.3-6.1
	l-20.3-6.1l0.7-3.8l21.5,2.3l-16.8-13.6l2-3l18.9,10.3l-10.2-19l3.1-2l13.4,16.6l-2.2-21.3l3.8-0.7l6.1,20.6l6.3-20.6l3.6,0.7
	l-2.2,21.3l13.6-16.6l2.9,2l-10,19l18.8-10.3l2,3L451,224l21.5-2.3l0.7,3.8C473.2,225.4,452.6,231.5,452.6,231.5z"/>
</svg>
